<?xml version="1.0" encoding="utf-8"?>
<!-- Generator: Adobe Illustrator 15.0.0, SVG Export Plug-In . SVG Version: 6.00 Build 0)  -->
<!DOCTYPE svg PUBLIC "-//W3C//DTD SVG 1.1//EN" "http://www.w3.org/Graphics/SVG/1.1/DTD/svg11.dtd">
<svg version="1.1" id="Слой_1" xmlns="http://www.w3.org/2000/svg" xmlns:xlink="http://www.w3.org/1999/xlink" x="0px" y="0px"
	 width="348.738px" height="100.079px" viewBox="0 0 348.738 100.079" enable-background="new 0 0 348.738 100.079"
	 xml:space="preserve">
<g id="Слой_x0020_1">
	<path fill-opacity="0.149" d="M348.738,90.059c0,5.52-4.491,10.011-10.012,10.011H10.058C4.491,100.07,0,95.579,0,90.059V10.067
		C0,4.5,4.491,0.009,10.058,0.009h328.67c5.52,0,10.011,4.491,10.011,10.058L348.738,90.059L348.738,90.059z"/>
	<g id="_309255368">
		<g>
			<path fill="#FFFFFF" d="M72.04,49.166c-0.046-8.467,6.923-12.537,7.251-12.724c-3.976-5.801-10.104-6.596-12.256-6.643
				c-5.146-0.562-10.151,3.087-12.771,3.087c-2.667,0-6.736-3.041-11.086-2.947c-5.614,0.094-10.853,3.321-13.707,8.374
				c-5.941,10.292-1.543,25.4,4.164,33.681c2.854,4.069,6.175,8.607,10.525,8.469c4.257-0.188,5.847-2.715,10.993-2.715
				c5.099,0,6.549,2.715,10.993,2.621c4.584-0.095,7.438-4.117,10.198-8.234c3.275-4.631,4.631-9.215,4.678-9.449
				C80.881,62.639,72.133,59.271,72.04,49.166z"/>
			<path fill="#FFFFFF" d="M63.667,24.327c2.292-2.854,3.835-6.736,3.415-10.712c-3.321,0.14-7.438,2.292-9.823,5.099
				c-2.105,2.479-4.023,6.502-3.509,10.338C57.445,29.332,61.281,27.133,63.667,24.327z"/>
		</g>
	</g>
	<g id="_541266560">
		<path fill="#FFFFFF" d="M136.782,68.6h-5.941l-3.274-10.244h-11.32L113.113,68.6h-5.754l11.18-34.85h6.97L136.782,68.6z
			 M126.584,54.099l-2.947-9.122c-0.328-0.936-0.889-3.134-1.778-6.549h-0.093c-0.328,1.449-0.889,3.648-1.638,6.549l-2.9,9.122
			H126.584z"/>
		<path fill="#FFFFFF" d="M165.645,55.737c0,4.256-1.169,7.672-3.461,10.15c-2.105,2.199-4.678,3.275-7.719,3.275
			c-3.321,0-5.707-1.17-7.157-3.557h-0.093v13.238h-5.567V51.76c0-2.713-0.094-5.473-0.234-8.279h4.912l0.328,3.977h0.094
			c1.871-2.994,4.678-4.491,8.467-4.491c2.994,0,5.473,1.17,7.438,3.509C164.618,48.814,165.645,51.901,165.645,55.737z
			 M159.938,55.924c0-2.434-0.561-4.445-1.637-6.035c-1.216-1.637-2.854-2.479-4.865-2.479c-1.404,0-2.667,0.467-3.743,1.355
			c-1.123,0.936-1.871,2.105-2.198,3.602c-0.188,0.703-0.281,1.264-0.281,1.687v4.209c0,1.823,0.561,3.368,1.684,4.631
			c1.123,1.265,2.573,1.871,4.35,1.871c2.105,0,3.743-0.795,4.912-2.433C159.33,60.743,159.938,58.59,159.938,55.924z"/>
		<path fill="#FFFFFF" d="M194.555,55.737c0,4.256-1.17,7.672-3.509,10.15c-2.06,2.199-4.632,3.275-7.672,3.275
			c-3.321,0-5.707-1.17-7.157-3.557h-0.094v13.238h-5.566V51.76c0-2.713-0.094-5.473-0.234-8.279h4.911l0.328,3.977h0.094
			c1.871-2.994,4.679-4.491,8.468-4.491c2.993,0,5.474,1.17,7.438,3.509S194.555,51.901,194.555,55.737z M188.848,55.924
			c0-2.434-0.563-4.445-1.638-6.035c-1.216-1.637-2.854-2.479-4.864-2.479c-1.404,0-2.668,0.467-3.789,1.355
			c-1.076,0.936-1.824,2.105-2.152,3.602c-0.188,0.703-0.28,1.264-0.28,1.687v4.209c0,1.823,0.562,3.368,1.685,4.631
			c1.123,1.265,2.572,1.871,4.352,1.871c2.104,0,3.742-0.795,4.91-2.433C188.238,60.743,188.848,58.59,188.848,55.924z"/>
		<path fill="#FFFFFF" d="M226.879,58.825c0,2.994-1.029,5.379-3.135,7.25c-2.245,2.06-5.426,3.041-9.496,3.041
			c-3.742,0-6.736-0.701-9.027-2.152l1.309-4.678c2.434,1.498,5.146,2.246,8.095,2.246c2.104,0,3.694-0.469,4.911-1.451
			c1.169-0.936,1.73-2.197,1.73-3.789c0-1.402-0.469-2.619-1.451-3.555c-0.936-0.982-2.571-1.871-4.817-2.713
			c-6.08-2.293-9.121-5.613-9.121-10.012c0-2.854,1.076-5.192,3.181-7.017c2.151-1.824,5.006-2.76,8.562-2.76
			c3.181,0,5.801,0.561,7.905,1.637l-1.402,4.583c-1.965-1.076-4.164-1.589-6.689-1.589c-1.965,0-3.463,0.468-4.584,1.403
			c-0.937,0.89-1.404,1.918-1.404,3.183c0,1.354,0.563,2.524,1.591,3.414c0.937,0.842,2.62,1.73,5.1,2.666
			c2.994,1.217,5.192,2.621,6.597,4.258C226.177,54.426,226.879,56.438,226.879,58.825z"/>
		<path fill="#FFFFFF" d="M245.311,47.69h-6.129v12.163c0,3.134,1.076,4.679,3.229,4.679c1.029,0,1.824-0.094,2.479-0.281
			l0.188,4.258c-1.123,0.421-2.573,0.607-4.353,0.607c-2.197,0-3.93-0.654-5.19-2.012c-1.218-1.357-1.871-3.602-1.871-6.783V47.643
			h-3.649v-4.162h3.649v-4.632l5.521-1.637v6.269h6.127V47.69L245.311,47.69z"/>
		<path fill="#FFFFFF" d="M273.096,55.831c0,3.883-1.121,7.063-3.32,9.543c-2.293,2.524-5.379,3.789-9.215,3.789
			c-3.649,0-6.598-1.217-8.795-3.649c-2.199-2.433-3.274-5.521-3.274-9.263c0-3.883,1.123-7.063,3.368-9.543
			c2.244-2.525,5.285-3.742,9.121-3.742c3.695,0,6.644,1.217,8.89,3.648C272.021,49,273.096,52.088,273.096,55.831z M267.295,56.017
			c0-2.339-0.467-4.304-1.496-5.94c-1.17-2.012-2.854-3.041-5.006-3.041c-2.245,0-3.977,1.029-5.146,3.041
			c-0.981,1.637-1.496,3.648-1.496,6.035c0,2.338,0.515,4.303,1.496,5.986c1.217,2.012,2.9,2.994,5.1,2.994
			c2.105,0,3.789-1.029,5.006-3.041C266.781,60.321,267.295,58.309,267.295,56.017z"/>
		<path fill="#FFFFFF" d="M291.246,48.392c-0.561-0.093-1.122-0.14-1.777-0.14c-1.965,0-3.461,0.701-4.537,2.197
			c-0.936,1.311-1.404,2.994-1.404,4.959v13.19h-5.565l0.047-17.214c0-2.9-0.047-5.521-0.188-7.905h4.864l0.188,4.817h0.142
			c0.606-1.684,1.543-2.993,2.807-3.977c1.263-0.936,2.572-1.357,4.022-1.357c0.515,0,0.982,0.048,1.402,0.095L291.246,48.392
			L291.246,48.392z"/>
		<path fill="#FFFFFF" d="M316.227,54.848c0,1.029-0.047,1.871-0.188,2.525h-16.793c0.093,2.479,0.889,4.396,2.432,5.707
			c1.45,1.17,3.275,1.776,5.521,1.776c2.479,0,4.725-0.42,6.736-1.216l0.889,3.883c-2.387,1.029-5.192,1.545-8.42,1.545
			c-3.883,0-6.971-1.123-9.17-3.416c-2.245-2.291-3.367-5.38-3.367-9.263c0-3.789,1.074-6.923,3.134-9.449
			c2.151-2.666,5.101-4.022,8.795-4.022c3.603,0,6.361,1.356,8.233,4.022C315.479,49.094,316.227,51.713,316.227,54.848z
			 M310.895,53.397c0.047-1.637-0.328-3.087-1.076-4.303c-0.982-1.544-2.434-2.293-4.443-2.293c-1.824,0-3.32,0.749-4.443,2.246
			c-0.937,1.216-1.498,2.666-1.685,4.35H310.895L310.895,53.397z"/>
	</g>
</g>
</svg>
