<?xml version="1.0" encoding="UTF-8"?>
<!DOCTYPE svg PUBLIC "-//W3C//DTD SVG 1.1//EN" "http://www.w3.org/Graphics/SVG/1.1/DTD/svg11.dtd">
<!-- Creator: CorelDRAW 2019 (64-Bit) -->
<svg xmlns="http://www.w3.org/2000/svg" xml:space="preserve" width="160mm" height="160mm" version="1.1" style="shape-rendering:geometricPrecision; text-rendering:geometricPrecision; image-rendering:optimizeQuality; fill-rule:evenodd; clip-rule:evenodd"
viewBox="0 0 16000 16000"
 xmlns:xlink="http://www.w3.org/1999/xlink"
 xmlns:xodm="http://www.corel.com/coreldraw/odm/2003">
 <defs>
  <style type="text/css">
   <![CDATA[
    .fil0 {fill:black}
    .fil2 {fill:#FCFEFE}
    .fil1 {fill:#FDC54E}
   ]]>
  </style>
 </defs>
 <g id="Слой_x0020_1">
  <metadata id="CorelCorpID_0Corel-Layer"/>
  <path class="fil0" d="M12515.54 10678.96c481.11,-318.78 643.28,-543.24 982.43,-949.43 112.64,-134.9 303.88,-404.91 542.11,-410.48 259.14,-6.06 438.94,288.59 363.29,573.16 -210.17,790.65 -1162.43,1600.5 -2040.26,1789.15 101.27,-420.45 127.46,-534.24 152.43,-1002.4zm-605.2 -1232.82c96.48,256.27 231.58,975.18 240.79,1301.79 24.98,885.39 -411.62,1539.04 -1185.61,1901.59 -295.44,138.39 -838.96,313.92 -1202.45,358.5 58.69,-122.09 157.37,-236.74 227.21,-355.97 55.79,-95.25 144.87,-271.89 204.96,-352.5 79.1,-205.94 248.47,-369.8 175.3,-612.51 -73.7,-36.05 -116.23,-50.43 -232.22,-38.67 -177.57,220.39 -778.47,1697.09 -1620.25,1912.88 -531.32,136.2 -644.79,-599.77 -670.86,-1066.22 -6.4,-114.64 14.69,-316.25 -52.99,-397 -88.41,-105.5 -252.91,-59.09 -295.69,45.75 -24.38,59.77 -50.86,634.23 -83.5,793.32 -290.41,1415.3 -1358.56,161.35 -1778.8,-481.48 -272.54,-416.89 -345.54,-814.74 -541.29,-814.88 -526.82,-0.38 344.08,1145.2 457.07,1364.43 -470.51,-58.76 -1176.05,-305.34 -1507.43,-519.32 -344.58,-222.5 -694.09,-628.94 -820.07,-1163.82 -220.41,-935.83 279.19,-1819.85 293.12,-2585.5 6.73,-370.08 -101.4,-546.07 -157.73,-859.51 209.67,-3.89 414.97,-2.8 624.12,15.43 237.33,20.69 373.43,32.7 341.92,-250.32 -229.89,-188.21 -726.71,-114.75 -1056.51,-124.9 -42.55,-71.17 -90.66,-277.8 -52.92,-355.87 191.41,24.49 894.72,220.79 997.26,165.19 63.46,-34.42 107.95,-113.22 75.36,-216.38 -60.55,-191.69 -499.26,-135.64 -667.8,-260.13l-418.96 -60.11c-55.85,-447.37 212.73,-1265 321,-1669.9 41.16,-605.63 -134.75,-1435.98 115.21,-2206.43 294.34,-907.26 981.44,-331.68 1382.51,-4.39 467.47,381.48 325.2,459.89 692.76,279.76 902.29,-442.17 1840.57,-649.26 2856.99,-390.12 1436.59,366.27 1053.51,745.17 1593.57,236.23 194.34,-183.14 380.68,-371.86 659.61,-504.79 392.12,-186.88 611.83,-123.14 778.52,200.82 249.32,484.59 241.39,1500.79 200.19,2097 -34.64,501.35 392.26,1346.83 321.78,1966.09 -245.37,35.1 -452.86,75.29 -690.82,131.06 -260.62,61.09 -467.8,55.44 -390.09,367.32 101.06,138.42 636.93,-87.18 1084,-130.73l-72.79 352.72c-241.75,18.16 -985.47,-55.73 -1057.23,146.12 -122.98,345.95 450.7,206.31 961.81,216.38 -158.76,838.6 -249.04,517.57 -49.05,1569.07zm-8773.22 -5684.63l4.53 1354.03c-53.33,177.62 -98.6,319.48 -147.55,514.06 -46.14,183.41 -73.56,330.92 -106.48,528.6 -28.69,172.29 -68.04,415.03 -68.04,593.52 -119.67,-2.67 -105.16,-26.47 -238.16,-26.47 -217.66,0 -1349.56,-50.57 -1349.56,211.7 0,179.54 8.12,105.28 79.39,211.7 333.47,0 667.4,-52.93 1111.4,-52.93 176,0 229.06,26.46 396.93,26.46 20.64,88.6 52.92,320.66 52.92,423.4 -335.27,0 -753.1,101.87 -1042.92,174.32 -213.94,53.48 -578.43,123.22 -560.28,321.3 26.68,291.12 386.51,116.83 533.26,75.07 128.52,-36.57 240.74,-61.06 360.55,-89.3 230.03,-54.24 546.47,-110.93 815.24,-110.93 152.23,653.41 264.72,614.11 68.96,1392.06 -189.05,751.27 -407.17,1586.38 -95.95,2366.07 93.09,233.21 234.04,492.44 391.22,667.26 406.35,451.96 702.08,617.42 1319.33,824.1 275.4,92.21 533.95,158.18 848.79,209.68 766.21,125.34 229.18,-11.51 753.7,331.25 207.61,135.66 474.08,273.49 785.75,214.34 272.28,-51.67 532.4,-272.69 585.51,-500.66l52.93 0c107.16,459.97 766.19,734.44 1384.15,272.75 73.27,-54.74 144.19,-102.93 209.04,-161.43 106.69,-96.26 76.72,-88.31 254.5,-115.97 437.8,-68.13 793.54,-139.15 1185.55,-269.86 1263.92,-421.43 1163.59,-933.76 1532.41,-1034.4 104.54,-28.53 188.12,-48.54 287.42,-83.05 843.41,-293.13 1640.75,-830.31 2045.05,-1633.16 158.26,-314.26 193.69,-396.35 193.69,-706.02 0,-374.2 -347.87,-740.94 -714.47,-740.94 -726.53,0 -1021.6,1023.55 -1587.72,1323.1 -8.84,-396.69 -317.55,-1218.53 -317.55,-1561.26 0,-287.21 129.96,-556.59 185.24,-793.86 1102.92,0 1693.56,595.29 1693.56,79.39 0,-245.56 -1332.91,-449.85 -1587.72,-449.85l26.47 -423.4 635.08 -26.46c337.09,0 568.17,52.93 899.71,52.93 202.13,-301.86 2.8,-353.43 -298.12,-389.89 -355.56,-43.09 -666.42,-33.51 -1024.98,-33.51 -91.23,0 -102.46,19.58 -185.23,26.47 -35.67,-428.65 -106.51,-821.86 -201.08,-1201.41 -26.86,-107.81 -40.35,-170.14 -73.47,-270.54 -126.52,-383.58 -43,-471.42 -43,-962.56 0,-864.45 -18.06,-2249.27 -1032.01,-2249.27 -440.27,0 -1187.89,578.89 -1349.56,820.33 -1420.4,-751.58 -2855.07,-757.61 -4286.85,0 -61.74,-92.2 -452.54,-428.48 -555.47,-503.01 -577.8,-418.37 -1294.85,-516.09 -1611.24,268.02 -121.55,301.22 -214.87,692.14 -214.87,1108.23z"/>
  <path class="fil1" d="M10195.24 12299.55c-60.09,80.61 -149.17,257.25 -204.96,352.5 -69.84,119.23 -168.52,233.88 -227.21,355.97 363.49,-44.58 907.01,-220.11 1202.45,-358.5 773.99,-362.55 1210.59,-1016.2 1185.61,-1901.59 -9.21,-326.61 -144.31,-1045.52 -240.79,-1301.79 -62.13,-34.05 -234.14,-282.54 -456.57,-93.6 -271.05,230.24 229.34,775.4 119.59,1707.48 -50.68,430.4 -240.7,665.92 -469.62,853.63 -190.98,156.61 -414.66,258.28 -656.52,349.63 -112.54,42.51 -185.64,82.36 -251.98,36.27z"/>
  <path class="fil1" d="M12515.54 10678.96c-24.97,468.16 -51.16,581.95 -152.43,1002.4 877.83,-188.65 1830.09,-998.5 2040.26,-1789.15 75.65,-284.57 -104.15,-579.22 -363.29,-573.16 -238.23,5.57 -429.47,275.58 -542.11,410.48 -339.15,406.19 -501.32,630.65 -982.43,949.43z"/>
  <path class="fil0" d="M7268.8 6874.88c-235.23,43.29 -402.38,98.64 -556.51,223.37 -310.92,251.62 -101.4,447.49 2.19,474.72 232.58,61.13 157.81,-105.27 556.26,-207.35 827.19,-211.91 1039.98,273.85 1284.76,206.07 133.7,-37.02 291.71,-248.89 4.19,-473.51 -299.07,-233.66 -840.46,-306.2 -1290.89,-223.3z"/>
  <path class="fil2" d="M3523.37 5120.03c-108.27,404.9 -376.85,1222.53 -321,1669.9l418.96 60.11c175.61,-7.94 123.75,-218.71 174.59,-523.19 61.57,-368.71 292.44,-1024.53 229.35,-1175.97 -32.33,-77.6 -120.26,-144.23 -227.84,-150.4 -101.99,-5.85 -134.96,23.47 -199.8,68.78l-74.26 50.77z"/>
  <path class="fil0" d="M9320.73 5910c0,246.26 -79.28,765.23 111.34,873.07 160.62,90.87 308.36,3.65 346.99,-110.85 33.69,-99.85 17.82,-359.47 18.2,-480.77 199.69,47.09 441.63,-32.05 354.4,-288.8 -44.14,-129.93 -309.77,-243.81 -443.68,-323.59 -139.71,-83.24 -374.94,-275.88 -547.26,-134 -62.69,51.62 -108.23,170.33 -57.92,286 37.61,86.46 132.75,121.68 217.93,178.94z"/>
  <path class="fil0" d="M5522.17 6188.77c0,112.71 -15.33,375.24 13.28,468.77 38.89,127.11 198.54,204.57 339.3,134.97 192.12,-94.99 123.76,-646.85 123.76,-889.3 134.75,-72.69 378.88,-230.38 176.25,-442.28 -161.67,-169.08 -405.73,23.91 -544.72,105.8 -139.66,82.27 -402.67,199.68 -453.62,315.17 -100.46,227.68 98.87,371.97 345.75,306.87z"/>
 </g>
</svg>
