<?xml version="1.0" encoding="UTF-8"?>
<!DOCTYPE svg PUBLIC "-//W3C//DTD SVG 1.1//EN" "http://www.w3.org/Graphics/SVG/1.1/DTD/svg11.dtd">
<!-- Creator: CorelDRAW -->
<svg xmlns="http://www.w3.org/2000/svg" xml:space="preserve" width="210mm" height="210mm" version="1.1" style="shape-rendering:geometricPrecision; text-rendering:geometricPrecision; image-rendering:optimizeQuality; fill-rule:evenodd; clip-rule:evenodd"
viewBox="0 0 21000 21000"
 xmlns:xlink="http://www.w3.org/1999/xlink"
 xmlns:xodm="http://www.corel.com/coreldraw/odm/2003">
 <defs>
  <style type="text/css">
   <![CDATA[
    .fil0 {fill:black}
    .fil1 {fill:#FDC54E}
    .fil2 {fill:#FEFEFD}
   ]]>
  </style>
 </defs>
 <g id="Слой_x0020_1">
  <metadata id="CorelCorpID_0Corel-Layer"/>
  <path class="fil0" d="M17305.13 15343.03c351.63,-253.99 503.2,-327.89 825.47,-662.75 493.75,-513.05 1017.09,-1396.24 1496.54,-1406.57 401.51,-8.64 669.61,442.74 552.84,877.73 -149.21,555.86 -729.44,1369.26 -1184.84,1715.24 -505.51,384.08 -1127.21,825.38 -1920.86,999.87 155.16,-621.78 216.74,-819.66 230.85,-1523.52zm3447.91 -1563.38l0 268.2c-47.08,477.65 -331.36,951.83 -619.46,1387.75 -526.59,796.8 -1350.92,1332.3 -2210.9,1733.16 -820.72,382.54 -1064.04,200.82 -1360.77,611.24 -527.51,729.64 -1470.65,1203.42 -2481.01,1463.03 -264.18,67.89 -1493.65,272.53 -1608.46,363.57 -577.31,457.81 -782.64,674.23 -1539.26,674.23 -432.57,0 -883.54,-411.18 -965.88,-764.66l-80.5 0c-76.25,327.3 -557.5,764.66 -965.89,764.66 -607.91,0 -946.61,-147.4 -1436.81,-575.44 -54.24,-47.34 -118.87,-128.56 -167.22,-154.76 -170.02,-92.12 -1480.8,-115.63 -2702.81,-718.04 -702.35,-346.22 -1024.17,-629.94 -1477.74,-1258.94 -933.52,-1294.62 -596.94,-2877.3 -236.07,-4319.62 87.95,-351.58 196.56,-717.36 153.82,-1068.73 -53.96,-443.64 -164.13,-669.64 -250.45,-1040.16 -998.58,0 -2141.26,442.7 -2334.22,442.7 -304.65,0 -338.64,-386.38 -121.07,-523.26 272.19,-171.23 1821.07,-482.87 2294.3,-482.87 0,-207.37 -64.44,-451.09 -80.48,-643.93 -204.04,0 -219.27,-40.24 -442.7,-40.24l-603.68 0c-473.49,0 -783.66,80.49 -1247.6,80.49 -66.68,-99.59 -106.08,-181.96 -120.74,-250.48l0 -109.97c37.14,-137.05 229.63,-195.08 534.54,-231.89 444.09,-53.59 1469.54,-107.01 1880.18,-11.34 0,-253.05 54.84,-654.6 97.2,-908.94 100.69,-604.64 223.43,-1015.97 392.62,-1579.49l-6.89 -2059.29c0,-911.7 318.6,-2575.7 1448.85,-2575.7 867.6,0 1187.68,395.9 1770.87,845.06 150.31,115.76 255.97,264.26 402.37,362.3 113.8,-26.53 1037.82,-430.67 1483.8,-568.7 405.79,-125.61 1344.01,-279.66 1776.06,-279.66 216.27,0 257.47,37.95 482.96,43.44 1200.06,29.27 2394.48,715.81 2776.93,804.92 149.12,-99.86 256.89,-247.6 425.52,-379.38l448.1 -356.82c773.76,-586.02 1832.73,-761.59 2347.21,252.04 262.9,517.94 245.65,834.22 360.99,1329.31 180.94,0 280.62,6.46 386.9,96.06 409.74,345.45 -209.76,748.33 -312.86,943.86 -99.76,189.23 -23.16,754.02 -74.04,972.34 171.72,0 269.45,11.33 364.05,78.65 256.12,182.23 232.04,674.52 -283.55,686.02 204.82,426.88 399.26,1772.03 442.7,2293.98 178.18,-85.51 1122.02,-61.48 1406.47,-38.15 529.07,43.42 1008.25,25.83 1008.25,400.36 0,314.16 -377.77,232.71 -610.04,207.69 -297.44,-32.05 -525.96,-46.71 -838.79,-46.71l-1006.13 40.24 -40.26 643.93c399.5,0 2414.72,308.98 2414.72,684.16 0,591.5 -532.19,204.15 -1364.56,36.47 -1375.36,-277.06 -1200.8,-198.73 -1297.38,118.75 -306.78,1008.43 -220.66,1041.53 54.19,2130.58 67.33,266.77 226.58,874.18 233.29,1175.31 657.03,-439.97 1017.82,-1146.98 1492.76,-1606.12 5.96,-5.74 14.71,-13.84 20.76,-19.48 512.83,-477.48 1248.21,-540.52 1673.13,-31.74 194.6,233.01 289.77,471.12 314.68,710.01zm-4364.07 -308.77c151.51,440.4 349.01,1442.77 364.62,1980.49 62.99,2169.71 -1693.36,3157.69 -3633.37,3430.68 79.65,-166.82 232.06,-356.52 329.7,-511.68 110.82,-176.12 195.57,-334.01 291.15,-506.19 97.42,-197.52 483.49,-785.33 276.44,-989.97 -419.99,-415.07 -603.74,730.25 -1452.77,1777.93 -106.72,131.68 -181.04,208.73 -303.78,339.69 -196.31,209.45 -429.11,448.95 -722.92,605.76 -360.44,192.38 -717.7,240.35 -942.24,-66.2 -537.9,-734.34 -235.4,-1732.97 -531.97,-2105.36 -530.92,-57.87 -399.82,320.27 -430.41,744.16 -23.48,325.42 -70.5,663.35 -177.15,955.16 -280.48,767.44 -701.09,789.88 -1362,332.52 -560.15,-387.64 -1214.45,-1274.57 -1542.54,-1919.74 -125.73,-247.26 -236.39,-497.32 -390.28,-718.29 -1032.32,-128.63 330.44,1623.38 559.7,2060.71 -743.23,-96.35 -1757.76,-448.51 -2290.13,-790.32 -534.88,-343.46 -1071.26,-961.3 -1260.96,-1797.54 -320.2,-1411.61 466.24,-2855.51 453.68,-3980.55 -6.81,-610.34 -213.7,-966.89 -235.75,-1226.57 410.62,-29.47 1161.45,108.9 1436.98,-44.97 126.81,-447.11 -140.16,-459.09 -546.19,-484.82 -348.34,-22.07 -729.21,1.88 -1063.38,-26.47l-76.5 -537.18c367.4,37.58 1310.14,316.02 1551.11,256.9 219.29,-220.63 165.06,-426.19 -147.36,-520.02 -220.63,-66.26 -554.23,-99.17 -723.17,-198.74l-672.9 -99.64c-110.44,-556.47 313.29,-1941.97 458.53,-2459.83 76.76,-339.99 -11.31,-986.37 -15.59,-1379.52 -26.36,-2416.63 563.49,-3933.02 2647.7,-1743.15 562.21,590.73 620.06,-118.72 2463.62,-527.74 1269.12,-281.57 2469.14,-100.15 3638.31,381.88 1315.49,542.34 686.6,562.93 1745.05,-312.94 251.51,-208.13 510.02,-405.48 872.28,-535.16 538.63,-192.82 776.31,49.81 946.97,383.88 129.26,253 288.4,767.24 278.46,1082.22 -441.24,24.29 -1376.51,-178.61 -1397.94,345.79 -22.98,562.04 853.65,362.1 1296.77,389.71 -71.71,147.48 -1037.81,1209.84 -1124.55,1297.85 -238.7,242.21 -248.07,654.81 171.51,705.79 336.6,40.9 796.51,-11.27 1157.95,11.79 115.9,559.42 530.81,1771.51 422.65,2362.63 -374.43,57.37 -1635.75,197.48 -1672.55,547.27 -45.28,430.34 441.64,260.97 716.75,189.85 309.2,-79.92 629.08,-144.83 965.68,-178l-110.41 537c-380.62,26.48 -1539.72,-135.42 -1619.85,259.2 -83.65,412.01 353.95,327.08 614.34,307.48 248.99,-18.75 614.73,-38.62 858.96,-6.16 -72.5,390.22 -217.66,667.27 -237.17,1140.94 -18.55,450.67 83.07,818.31 164.92,1239.47z"/>
  <path class="fil1" d="M13741.07 17864.18c-95.58,172.18 -180.33,330.07 -291.15,506.19 -97.64,155.16 -250.05,344.86 -329.7,511.68 1940.01,-272.99 3696.36,-1260.97 3633.37,-3430.68 -15.61,-537.72 -213.11,-1540.09 -364.62,-1980.49 -109.48,-65.4 -141.8,-174.43 -280,-220.85 -159.15,-53.44 -323.6,-12.65 -422.52,73.03 -521.4,451.67 1108.93,2470.31 -530.95,3895.92 -261.56,227.37 -966.95,596.97 -1414.43,645.2z"/>
  <path class="fil1" d="M17305.13 15343.03c-14.11,703.86 -75.69,901.74 -230.85,1523.52 793.65,-174.49 1415.35,-615.79 1920.86,-999.87 455.4,-345.98 1035.63,-1159.38 1184.84,-1715.24 116.77,-434.99 -151.33,-886.37 -552.84,-877.73 -479.45,10.33 -1002.79,893.52 -1496.54,1406.57 -322.27,334.86 -473.84,408.76 -825.47,662.75z"/>
  <path class="fil0" d="M17855.39 1204.55c-194.63,290.64 -418.72,482.62 -632.03,736.32 -96.32,114.55 -111.7,149.59 -223.44,259.5 -103.69,102.02 -114.62,135.77 -202.99,239.71 -94.24,110.87 -154.41,122.69 -217.68,269.04 -96.65,223.66 37.89,507.7 310.24,507.7l1891.53 0c287.25,0 516.88,-715.62 -158.4,-727.01 -278.88,-4.7 -567.47,2.59 -847.73,2.59 32.5,-121.69 372.88,-469.31 493.46,-593.16l342.1 -382.33c143.1,-153.81 452.3,-478.56 452.3,-674.57 0,-198.91 -163.3,-362.21 -362.22,-362.21l-1811.04 0c-374.62,0 -444.84,503.03 -188.81,671.72 181.76,119.77 871.12,52.7 1154.71,52.7z"/>
  <path class="fil0" d="M9641.15 8630.06c-591.94,57.6 -1410.76,274.96 -1362.26,902.37 30.22,391.06 448.4,341.22 803.01,340.73 323.27,-0.42 2101.28,29.87 2275.63,-33.14 534.89,-193.27 148.18,-1391.4 -1716.38,-1209.96z"/>
  <path class="fil2" d="M3605.11 6970.8c-145.24,517.86 -568.97,1903.36 -458.53,2459.83l672.9 99.64c231.98,-115.22 185.83,-566.04 232.22,-838.96 119.24,-701.6 498.39,-1562.94 301.28,-1832.87 -74.14,-101.53 -230.92,-178.23 -417.95,-146.26 -194.3,33.2 -214.12,151.39 -329.92,258.62z"/>
  <path class="fil0" d="M12239.06 7316.53c-182.31,50.66 -278.37,108.44 -283.54,330.84 -4.65,200.2 109.6,319.52 271.43,357.54 139.41,32.74 1142.23,32.25 1272.11,-5.95 344.11,-101.2 321.25,-621.22 -49.31,-692.06 -150.35,-28.76 -1090.24,-23.86 -1210.69,9.63z"/>
  <path class="fil0" d="M6452.26 7322.51c-436.19,159.86 -321.04,638.96 52.65,693.26 155.7,22.63 1112.92,20.39 1234.54,-22.3 322.15,-113.09 329.41,-640.58 -114.9,-691.69 -184.03,-21.19 -1043.78,-26.37 -1172.29,20.73z"/>
 </g>
</svg>
