<?xml version="1.0" encoding="utf-8"?>
<!-- Generator: Adobe Illustrator 23.1.0, SVG Export Plug-In . SVG Version: 6.00 Build 0)  -->
<svg version="1.1" id="Слой_1" xmlns="http://www.w3.org/2000/svg" xmlns:xlink="http://www.w3.org/1999/xlink" x="0px" y="0px"
	 viewBox="0 0 566.9 566.9" style="enable-background:new 0 0 566.9 566.9;" xml:space="preserve">
<style type="text/css">
	.st0{display:none;fill-rule:evenodd;clip-rule:evenodd;fill:#FDD782;}
	.st1{fill-rule:evenodd;clip-rule:evenodd;}
	.st2{fill-rule:evenodd;clip-rule:evenodd;fill:#FDC54E;}
	.st3{fill-rule:evenodd;clip-rule:evenodd;fill:#FFFFFE;}
</style>
<g>
	<path class="st0" d="M294.7,245.5c14.9,0,7.9,17.8,3.7,24.3c-4.3,6.6-13.1,12.8-25.5,12.9c-29.1,0-40.5-37.2-22.1-37.2H294.7z
		 M324.5,210.2c4.1-2.1,8.1,0.3,9.2,3.4c0.1,0.2,3.5,31.2-2.9,34.6c-3.7,2-7.9-0.1-9.3-2.9c-1.5-3.1-0.8-8.6-0.8-12.2
		C320.7,225.9,318.5,213.2,324.5,210.2L324.5,210.2z M213,218.1c0-11.9,13.5-11.4,13.5,0v21.8c0,12.7-13.5,12.1-13.5,0.7V218.1z
		 M156.4,201.8c0.2-0.1,0.4-0.3,0.5-0.4c2.7-1.8,3.8-3.2,7.2-3c12,0.7,4.7,16.6,3.6,20.9c-1.5,5.6-2.7,10.8-3.7,16.6
		c-1.3,8.2-0.1,14.7-4.9,15c2.2,1.5,10.2,2.8,13.5,3.7c6.3,1.7,7.5,5.5,3.5,9.9c-5.2,1.2-21.7-4-29.1-4.8l1.4,10
		c9.7,0.9,23.7-2,30.6,3.6c0.9,8-2.9,7.7-9.7,7.1c-5.9-0.5-11.7-0.6-17.7-0.5c1.6,8.9,4.6,13.9,4.5,24.4
		c-0.4,21.7-14.5,46.7-8.3,73.3c7.3,30.8,37.5,43.7,66,47.7c-5.1-9.9-10.1-14.7-16.2-28.5c-2.4-5.5-2.7-5.6,0.7-9.9
		c7.9-1,7.8,4.6,10.7,10.4c2.6,5,5.1,9.4,8,13.8c8.1,12.4,35.3,46.5,46.5,21.9c7.5-16.4,1.7-32.5,8.1-34.8
		c10.8-3.7,4.4,13.5,10.5,31.7c11.1,32.9,44.4-11.5,54-29.2c2.6-4.8,4.1-9.6,7.5-13.9c14.2-1.4,3.5,14.6,1,19.4
		c7.6-0.3,22.1-8.4,26.4-11.9c6.2-5,11.9-12.2,13.3-24.2c3.1-25.9-11.1-41.9-3.4-48.4c6.3-5.4,11.4,1.8,13,2.7
		c-1.5-7.6-3.3-14.3-3.1-22.4c0.3-9.2,2.9-14.1,4.5-22.1c-14.5-0.3-30.8,3.7-27.3-6.1c2-5.7,23.1-3.6,30-4.1l2.1-10
		c-5.8,0.6-11.5,1.7-16.7,3c-6.4,1.5-9.1,3.8-14,0.7c-2.2-8.8,3.7-8.7,11.1-10.4c6.4-1.5,12.8-2.7,19.6-3.7
		c2-17.5-10.1-41.7-9.1-55.7c1.2-16.9,1.4-45.7-5.7-59.4c-10.6-20.6-32.9,1.2-40.8,8.6c-15.3,14.4-4.5,3.7-45.2-6.7
		c-28.8-7.3-55.4-1.5-81,11.1c-10.4,5.1-6.4,2.9-19.6-7.9c-11.4-9.3-30.8-25.6-39.2,0.1C152.5,161.4,157.6,184.3,156.4,201.8
		L156.4,201.8z"/>
	<path class="st1" d="M411.3,359.4c25.2-16.8,31.4-38.3,43.2-38.6c7.4-0.2,12.4,8.2,10.3,16.2c-6,22.5-32.9,45.4-57.9,50.7
		C409.8,375.9,410.6,372.7,411.3,359.4L411.3,359.4z M394.1,324.5c2.8,8.2,6.5,26.8,6.8,36.9c0.8,25.3-11.8,43.6-33.6,53.9
		c-9,4.3-23,8.5-34,10.1l11.5-19.1c2.5-4.8,13.2-20.9-1-19.4c-3.4,4.3-4.9,9.1-7.5,13.9c-9.6,17.7-42.9,62.1-54,29.2
		c-6.2-18.2,0.2-35.4-10.5-31.7c-6.4,2.2-0.7,18.3-8.1,34.8c-11.1,24.6-38.4-9.5-46.5-21.9c-2.9-4.5-5.4-8.8-8-13.8
		c-2.9-5.8-2.8-11.4-10.7-10.4c-3.5,4.3-3.2,4.4-0.7,9.9c6.1,13.8,11.1,18.6,16.2,28.5c-28.5-4-58.7-16.9-66-47.7
		c-6.2-26.6,7.9-51.6,8.3-73.3c0.2-10.5-2.9-15.5-4.5-24.4c6-0.1,11.8-0.1,17.7,0.5c6.7,0.6,10.6,0.9,9.7-7.1
		c-6.9-5.6-20.8-2.7-30.6-3.6l-1.4-10c7.4,0.8,23.9,6,29.1,4.8c4-4.4,2.8-8.2-3.5-9.9c-3.3-0.9-11.3-2.2-13.5-3.7l-12-1.7
		c-1.5-11.6,5.9-37.1,9.2-47.4c1.2-17.5-3.9-40.4,3.3-62.5c8.3-25.7,27.8-9.4,39.2-0.1c13.3,10.8,9.2,13,19.6,7.9
		c25.6-12.5,52.2-18.4,81-11.1c40.7,10.4,29.9,21.1,45.2,6.7c7.9-7.5,30.2-29.2,40.8-8.6c7.1,13.8,6.8,42.5,5.7,59.4
		c-1,14.1,11.1,38.3,9.1,55.7c-6.7,1-13.2,2.2-19.6,3.7c-7.4,1.7-13.3,1.6-11.1,10.4c4.9,3.1,7.7,0.8,14-0.7
		c5.2-1.2,10.9-2.4,16.7-3l-2.1,10c-6.8,0.5-27.9-1.6-30,4.1c-3.5,9.8,12.8,5.8,27.3,6.1c-1.5,8-4.2,12.9-4.5,22.1
		C390.8,310.2,392.7,316.8,394.1,324.5L394.1,324.5z M145.4,163.3l0.1,38.4c-1.5,5-2.8,9-4.2,14.6c-1.3,5.2-2.1,9.4-3,15
		c-0.8,4.9-1.9,11.8-1.9,16.8c-3.4-0.1-3-0.8-6.7-0.8c-6.2,0-38.3-1.4-38.3,6c0,5.1,0.2,3,2.2,6c9.5,0,18.9-1.5,31.5-1.5
		c5,0,6.5,0.7,11.3,0.7c0.6,2.5,1.5,9.1,1.5,12c-9.5,0-21.3,2.9-29.6,4.9c-6.1,1.5-16.4,3.5-15.9,9.1c0.7,8.2,10.9,3.3,15.1,2.1
		c3.6-1,6.8-1.7,10.2-2.5c6.5-1.5,15.5-3.1,23.1-3.1c4.3,18.5,7.5,17.4,2,39.5c-5.4,21.3-11.6,45-2.7,67.1c2.6,6.6,6.6,14,11.1,18.9
		c11.5,12.8,19.9,17.5,37.4,23.4c7.8,2.6,15.1,4.5,24.1,5.9c21.7,3.6,6.5-0.3,21.4,9.4c5.9,3.8,13.4,7.7,22.3,6.1
		c7.7-1.5,15.1-7.7,16.6-14.2h1.5c3,13,21.7,20.8,39.2,7.7c2.1-1.6,4.1-2.9,5.9-4.6c3-2.7,2.2-2.5,7.2-3.3c12.4-2,22.5-4,33.6-7.7
		c15-5,28.4-12.7,37.2-25c4.4-6.2,4-3.1,14.3-6.7c23.9-8.3,46.5-23.5,58-46.3c4.5-8.9,5.5-11.2,5.5-20c0-10.6-9.9-21-20.3-21
		c-20.6,0-28.9,29-45,37.5c-0.2-11.2-9-34.5-9-44.2c0-8.1,3.7-15.8,5.2-22.5c31.3,0,48,16.9,48,2.2c0-6.9-37.8-12.7-45-12.7l0.7-12
		l18-0.7c9.6,0,16.1,1.5,25.5,1.5c5.7-8.6,0.1-10-8.4-11.1c-10.1-1.2-18.9-1-29.1-1c-2.6,0-2.9,0.6-5.2,0.8c-1-12.2-3-23.3-5.7-34.1
		c-0.8-3-1.2-4.8-2.1-7.7c-3.6-10.9-1.2-13.4-1.2-27.3c0-24.5-0.5-63.8-29.3-63.8c-12.5,0-33.7,16.4-38.2,23.2
		c-40.3-21.3-80.9-21.5-121.5,0c-1.8-2.6-12.8-12.1-15.8-14.3c-16.4-11.8-36.7-14.6-45.7,7.6C148.1,140.4,145.4,151.5,145.4,163.3
		L145.4,163.3z"/>
	<path class="st2" d="M344.8,406.3l-11.5,19.1c11-1.6,25-5.9,34-10.1c21.8-10.3,34.4-28.6,33.6-53.9c-0.3-10-4-28.7-6.8-36.9
		c-1.6-0.9-6.6-8.1-13-2.7c-7.7,6.5,6.5,22.5,3.4,48.4c-1.4,12-7.1,19.2-13.3,24.2C366.9,397.9,352.4,406,344.8,406.3L344.8,406.3z"
		/>
	<path class="st1" d="M294.7,245.5h-43.9c-18.3,0-6.9,37.2,22.1,37.2c12.4,0,21.2-6.2,25.5-12.9
		C302.6,263.2,309.6,245.5,294.7,245.5L294.7,245.5z"/>
	<path class="st2" d="M411.3,359.4c-0.7,13.3-1.4,16.5-4.3,28.4c24.9-5.4,51.9-28.3,57.9-50.7c2.1-8.1-2.9-16.4-10.3-16.2
		C442.6,321.1,436.5,342.6,411.3,359.4L411.3,359.4z"/>
	<path class="st3" d="M156.4,201.8c-3.2,10.3-10.6,35.8-9.2,47.4l12,1.7c4.8-0.2,3.5-6.8,4.9-15c1-5.8,2.2-11,3.7-16.6
		c1.1-4.3,8.4-20.2-3.6-20.9c-3.5-0.2-4.5,1.2-7.2,3C156.8,201.5,156.6,201.7,156.4,201.8L156.4,201.8z"/>
	<path class="st1" d="M324.5,210.2c-6,3-3.8,15.7-3.8,22.8c0,3.6-0.7,9.1,0.8,12.2c1.4,2.9,5.5,4.9,9.3,2.9
		c6.4-3.3,2.9-34.4,2.9-34.6C332.5,210.6,328.6,208.2,324.5,210.2L324.5,210.2z"/>
	<path class="st1" d="M213,218.1v22.5c0,11.4,13.5,11.9,13.5-0.7v-21.8C226.6,206.7,213,206.1,213,218.1L213,218.1z"/>
</g>
</svg>
