<svg width="20" height="20" viewBox="0 0 20 20" fill="none" xmlns="http://www.w3.org/2000/svg" data-v-4facb4c7=""><path d="M1.82141 6.66932V8.31302C1.82174 8.62934 1.94754 8.93272 2.17126 9.15658C2.39497 9.38029 2.69834 9.50626 3.01469 9.50659H3.25965V17.7633L3.25981 17.7635C3.26014 18.0798 3.38594 18.383 3.60966 18.6067C3.83337 18.8305 4.13674 18.9564 4.45309 18.9568H15.547C15.8635 18.9564 16.1669 18.8306 16.3906 18.6069C16.6145 18.3832 16.7403 18.0798 16.7408 17.7635V9.50675H16.9851H16.9849C17.3014 9.50642 17.6048 9.38045 17.8286 9.15674C18.0523 8.93286 18.1783 8.62949 18.1786 8.31318V6.66948C18.1783 6.35316 18.0523 6.04978 17.8286 5.82592C17.6047 5.60221 17.3014 5.47624 16.9849 5.47591H16.4776C16.9363 5.19743 17.2919 4.77753 17.4909 4.27917C17.7205 3.69265 17.6936 3.03679 17.4166 2.47101C17.0981 1.87438 16.5692 1.41765 15.9324 1.18963C15.2958 0.961599 14.5971 0.978525 13.9722 1.23709C13.0017 1.6945 12.1477 2.36612 11.4745 3.20156C11.3812 3.02033 11.24 2.86831 11.0662 2.76175C10.8925 2.65537 10.6927 2.59877 10.489 2.59811H9.51087C9.30757 2.59894 9.10825 2.65537 8.93481 2.76158C8.76121 2.86763 8.62015 3.01932 8.52687 3.20004C7.85372 2.36459 6.99988 1.69293 6.0295 1.23557C5.40449 0.977004 4.70581 0.960073 4.06916 1.1881C3.43238 1.4163 2.9033 1.87285 2.58478 2.46948C2.3078 3.03505 2.28074 3.69095 2.51043 4.2773C2.70909 4.77583 3.06492 5.19606 3.52381 5.47439H3.01483C2.69817 5.47472 2.39462 5.60085 2.17093 5.8249C1.94705 6.04911 1.82141 6.35283 1.82158 6.66948L1.82141 6.66932ZM2.56492 8.31285V6.66932C2.56508 6.42104 2.76639 6.21957 3.01467 6.21923H7.98468V8.76307H3.01467C2.76639 8.76274 2.56509 8.56126 2.56492 8.31298V8.31285ZM11.2716 6.2191V8.76295L8.72806 8.76311V6.21926H11.2716V6.2191ZM4.45299 18.2116C4.20471 18.2114 4.00341 18.0101 4.00324 17.7619V9.50683H7.98464V18.2118L4.45299 18.2116ZM8.72793 18.2116V9.50666H11.2714V18.2116H8.72793ZM15.9969 17.7619C15.9965 18.0103 15.7951 18.2116 15.5466 18.2116H12.0149V9.50666H15.9969V17.7619ZM17.4348 6.66919V8.31289C17.4346 8.56134 17.2331 8.76282 16.9845 8.76299H12.0149V6.21914H16.9845C17.2331 6.21931 17.4346 6.42078 17.4348 6.66924V6.66919ZM14.2481 1.92648C14.4936 1.8279 14.7556 1.77745 15.0202 1.77778C15.374 1.76932 15.7232 1.85993 16.0281 2.03967C16.333 2.21941 16.5816 2.4808 16.7455 2.79448C16.9323 3.17469 16.951 3.61582 16.7972 4.01047C16.6138 4.46554 16.2482 4.82318 15.7891 4.99627C14.0709 5.68667 12.4151 5.33649 11.8414 4.97619C14.0413 4.87362 14.9641 3.65581 15.0034 3.60071V3.60087C15.1208 3.43541 15.0839 3.20672 14.9208 3.08641C14.7575 2.96625 14.5281 2.99895 14.405 3.15993C14.3723 3.20275 13.6024 4.18588 11.6998 4.23801C12.0886 3.33268 13.4734 2.23803 14.2481 1.92652L14.2481 1.92648ZM9.51052 3.34131H10.4887C10.5873 3.34131 10.6817 3.38048 10.7516 3.45018C10.8213 3.51988 10.8604 3.61448 10.8604 3.71306V5.10231C10.8604 5.20089 10.8213 5.29549 10.7516 5.36519C10.6817 5.4349 10.5873 5.47406 10.4887 5.47406H9.51052C9.30523 5.47406 9.13877 5.3076 9.13877 5.10231V3.71306C9.13877 3.50777 9.30523 3.34131 9.51052 3.34131V3.34131ZM3.25404 2.79299C3.41867 2.47949 3.66761 2.21828 3.97282 2.03886C4.27802 1.85944 4.62719 1.76901 4.98118 1.7778C5.24572 1.77747 5.50779 1.82793 5.75323 1.92651C6.52763 2.23801 7.91237 3.33254 8.30154 4.238C6.40229 4.18705 5.63155 3.20754 5.59638 3.15992C5.47323 2.99893 5.24387 2.96624 5.08055 3.08639C4.91742 3.20671 4.88057 3.43541 4.99791 3.60086C5.03724 3.65512 5.95966 4.87344 8.15997 4.97634C7.58709 5.33731 5.93162 5.68781 4.21191 4.99642V4.99626C3.75222 4.82349 3.38607 4.46586 3.20236 4.01045C3.04835 3.6158 3.06694 3.17467 3.25397 2.79446L3.25404 2.79299Z" fill="white" stroke="white" stroke-width="0.5" data-v-4facb4c7=""></path></svg>