<?xml version="1.0" encoding="utf-8"?>
<!-- Generator: Adobe Illustrator 15.0.0, SVG Export Plug-In . SVG Version: 6.00 Build 0)  -->
<!DOCTYPE svg PUBLIC "-//W3C//DTD SVG 1.1//EN" "http://www.w3.org/Graphics/SVG/1.1/DTD/svg11.dtd">
<svg version="1.1" id="Слой_1" xmlns="http://www.w3.org/2000/svg" xmlns:xlink="http://www.w3.org/1999/xlink" x="0px" y="0px"
	 width="350.883px" height="103.934px" viewBox="0 0 350.883 103.934" enable-background="new 0 0 350.883 103.934"
	 xml:space="preserve">
<path fill-opacity="0.149" d="M14.466,0.001h321.953c7.957,0,14.465,6.507,14.465,14.466v75c0,7.958-6.508,14.466-14.465,14.466
	H14.466C6.507,103.931,0,97.424,0,89.466v-75C0,6.508,6.507,0.001,14.466,0.001z"/>
<path fill="#FEFEFE" d="M182.535,76.99c-1.358-1.17-2.48-2.996-3.137-4.261l4.541-1.967c0.278,0.563,0.701,1.403,1.402,2.152
	c1.172,1.266,2.717,2.152,4.637,2.152c1.777,0,3.744-0.842,4.82-2.293c0.938-1.312,1.313-2.949,1.313-4.729v-1.778
	c-3.276,4.166-10.396,3.604-14.372-0.75c-4.261-4.634-4.214-12.124,0.094-16.759c4.26-4.214,10.533-4.729,14.231-0.748h0.047v-2.015
	h4.916v21.487c0,5.432-2.014,8.521-4.495,10.348c-1.825,1.312-4.354,1.919-6.601,1.919C186.982,79.752,184.5,78.724,182.535,76.99z
	 M127.433,57.188L127.433,57.188c0-5.617,4.26-11.844,11.75-11.844c7.444,0,11.751,6.227,11.751,11.844
	c0,5.664-4.307,11.892-11.751,11.892C131.692,69.078,127.433,62.852,127.433,57.188z M152.947,57.188L152.947,57.188
	c0-5.617,4.307-11.844,11.751-11.844c7.444,0,11.75,6.227,11.75,11.844c0,5.664-4.306,11.892-11.75,11.892
	C157.254,69.078,152.947,62.852,152.947,57.188z M95.551,63.461L95.551,63.461c-7.116-7.209-6.882-18.727,0.234-25.889
	c3.558-3.604,8.239-5.385,12.968-5.385c4.494,0.047,8.989,1.731,12.5,5.01l-3.511,3.65c-5.103-4.915-13.249-4.868-18.211,0.28
	c-5.056,5.244-5.197,13.623-0.141,18.867c5.103,5.243,13.53,5.522,18.633,0.328c1.686-1.779,2.294-4.027,2.622-6.367h-11.938v-5.057
	h16.76c0.281,1.265,0.281,2.575,0.281,3.887c0,4.119-1.779,8.521-4.541,11.375c-3.184,3.229-7.631,4.916-12.266,4.869
	C104.071,68.985,99.203,67.112,95.551,63.461z M214.932,65.567L214.932,65.567c-4.168-4.635-4.168-12.219,0-16.853
	c4.213-4.589,11.375-4.589,15.447,0c1.313,1.497,2.201,3.417,2.997,5.431l-15.685,6.602c0.938,1.872,2.717,3.65,5.572,3.65
	c2.434,0,4.117-0.842,5.852-3.323l4.119,2.763l0,0c-0.467,0.607-1.076,1.266-1.498,1.73
	C227.57,70.201,219.145,70.201,214.932,65.567z M204.396,68.376L204.396,68.376v-34.97h5.196v34.97H204.396z M145.737,57.188
	L145.737,57.188c0-3.371-2.388-7.163-6.554-7.163s-6.554,3.792-6.554,7.163c0,3.417,2.388,7.162,6.554,7.162
	S145.737,60.605,145.737,57.188z M171.252,57.188L171.252,57.188c0-3.371-2.388-7.163-6.554-7.163s-6.554,3.792-6.554,7.163
	c0,3.417,2.388,7.162,6.554,7.162S171.252,60.605,171.252,57.188z M196.205,59.342L196.205,59.342
	c0.047-0.142,0.141-0.469,0.188-0.844c0-0.047,0.047-0.094,0-0.094c0.094-0.423,0.142-0.844,0.094-1.265
	c0-0.422,0-0.796-0.094-1.171c0-0.094,0-0.141,0-0.141c-0.047-0.375-0.141-0.75-0.281-1.078c-0.889-2.762-3.229-4.728-6.037-4.68
	c-3.512,0-6.32,3.229-6.32,7.162c0.047,3.979,2.903,7.115,6.414,7.115C192.975,64.304,195.314,62.338,196.205,59.342z
	 M216.896,56.766L216.896,56.766l10.438-4.398c-1.076-1.874-2.81-2.481-4.308-2.481C219.051,49.885,216.335,54.426,216.896,56.766z"
	/>
<path fill="#FEFEFE" d="M309.452,78.864L309.452,78.864l5.243-11.283l-9.598-22.05h6.133l6.086,15.964l6.556-15.964h5.43
	l-13.998,33.333H309.452z M284.404,66.784L284.404,66.784c-1.45-1.403-2.245-3.604-2.245-5.665
	c-0.048-1.731,0.562-3.559,1.872-4.961c2.06-2.201,5.195-3.186,8.474-3.186c2.154,0,4.073,0.469,5.525,1.266
	c0-3.699-2.903-5.103-5.386-5.103c-2.246,0-4.541,0.796-5.336,2.855l-4.637-1.874c0.844-2.246,3.698-5.664,9.878-5.664
	c2.996,0,5.945,1.028,7.912,3.09c1.92,2.062,2.574,4.26,2.574,7.678v13.107h-5.103v-2.247c-0.656,0.796-1.687,1.64-2.765,2.2
	c-1.312,0.607-2.81,0.843-4.213,0.843C288.619,69.125,286.09,68.376,284.404,66.784z M245.643,68.376L245.643,68.376v-33.66h11.143
	c6.508,0,11.424,4.681,11.424,10.3c0,5.617-4.684,10.298-10.439,10.298h-6.977v13.063L245.643,68.376L245.643,68.376z
	 M272.795,68.376L272.795,68.376v-33.66h5.148v33.66H272.795z M297.982,58.498L297.982,58.498c-1.267-0.843-3.186-1.217-4.821-1.217
	c-3.652,0-5.713,1.824-5.713,3.838c0,2.248,2.153,3.371,4.168,3.371C294.518,64.49,297.982,62.058,297.982,58.498z M262.963,45.156
	L262.963,45.156c0-2.949-2.293-5.432-5.711-5.432h-6.461v10.813h6.742C260.577,50.54,262.963,48.059,262.963,45.156z"/>
<path fill="#FFFFFF" d="M29.548,78.83c0.225-0.085,0.461-0.193,0.706-0.327l32.38-17.725l-7.677-7.665L29.548,78.83z M64.067,59.996
	l-8.008-7.997l8-8.098l11.018,6.011c2.714,1.479,1.326,3.332,0,4.058L64.067,59.996z M62.627,43.121L30.254,25.46
	c-0.346-0.188-0.738-0.305-1.13-0.354L54.95,50.891L62.627,43.121z M27.226,25.423l26.623,26.583L27.354,78.822
	c-0.773-0.49-1.188-1.555-1.195-2.93c-0.013-2.636-0.224-44.456-0.24-47.595C25.911,26.794,26.458,25.876,27.226,25.423"/>
</svg>
