<?xml version="1.0" encoding="utf-8"?>
<!-- Generator: Adobe Illustrator 23.1.0, SVG Export Plug-In . SVG Version: 6.00 Build 0)  -->
<svg version="1.1" id="Слой_1" xmlns="http://www.w3.org/2000/svg" xmlns:xlink="http://www.w3.org/1999/xlink" x="0px" y="0px"
	 viewBox="0 0 396.9 283.5" style="enable-background:new 0 0 396.9 283.5;" xml:space="preserve">
<style type="text/css">
	.st0{fill-rule:evenodd;clip-rule:evenodd;fill:#EEF1F2;}
	.st1{fill:#EEF1F2;}
</style>
<g>
	<path class="st0" d="M274,176.3H123.4c-6.3,0-10.2-2-13.8-4.8c-4.7-3.7-8.1-13.1-4.6-20.3c1.9-4,4.4-7.3,8.7-9.1
		c2.3-1,4.4-1.7,7.6-1.7h154.4c10.2,0,18.5,9.6,17.8,18.6C292.7,169.1,285.2,176.3,274,176.3L274,176.3z M123.8,185.7h149.3
		c8,0,14.8-2.1,20.5-7.1c18.4-16.3,6.6-47.6-17.9-47.6H121.3c-4.2,0-8.2,1.1-11,2.5c-1.7,0.8-2.8,1.4-4.3,2.5
		c-3.7,2.4-7.8,7.5-9.5,11.7c-1,2.5-2.6,8.4-2.1,11.5c1.6,11.4,5.9,20,17.5,24.5C115.3,185,119.3,185.7,123.8,185.7L123.8,185.7z"/>
	<path class="st0" d="M112.4,158.1c0,5.2,4.3,9.3,8.9,9.3h86.5v-18.2h-87C116.3,149.2,112.4,153.6,112.4,158.1L112.4,158.1z"/>
</g>
<g>
	<path class="st1" d="M130.7,114.8c0,4.3-3.8,7.4-9,7.4c-3.4,0-6.3-1.4-8.2-3.8c-0.4-0.5-0.5-1-0.5-1.4c0-1.3,1-2.2,2.2-2.2
		c0.6,0,1.1,0.2,1.6,0.8c1.4,1.5,3,2.2,4.9,2.2c2.5,0,4.2-1.3,4.2-3.2c0-1.7-1.4-2.9-3.3-2.9h-2.9c-1.1,0-2-0.9-2-2s0.9-2,2-2h1.9
		c1.8,0,3-1.1,3-2.7c0-1.7-1.4-2.8-3.3-2.8c-1.5,0-3,0.6-4.1,1.9c-0.5,0.5-1,0.7-1.6,0.7c-1.2,0-2.2-1-2.2-2.1c0-0.5,0.1-1,0.5-1.5
		c1.7-2.1,4.5-3.4,7.4-3.4c4.6,0,8.1,3,8.1,7c0,1.9-0.8,3.5-2.2,4.6C129.4,110.4,130.7,112.3,130.7,114.8z"/>
	<path class="st1" d="M154.2,119.9c0,1.3-1,2.3-2.4,2.3c-1,0-1.8-0.6-2.3-1.7l-1-2.4h-10l-1,2.4c-0.4,1.1-1.2,1.7-2.3,1.7
		c-1.4,0-2.4-1-2.4-2.3c0-0.4,0.1-0.8,0.3-1.3l8.1-19.2c0.4-1.1,1.2-1.6,2.3-1.6c1.1,0,1.9,0.6,2.3,1.6l8,19.2
		C154.1,119.1,154.2,119.5,154.2,119.9z M140.1,114.1h6.8l-3.4-9.2L140.1,114.1z"/>
	<path class="st1" d="M173.5,100.4c0,1.2-1,2.2-2.2,2.2h-8.4v17.2c0,1.4-1,2.5-2.4,2.5c-1.4,0-2.4-1.1-2.4-2.5v-19.1
		c0-1.4,1-2.5,2.5-2.5h10.8C172.6,98.2,173.5,99.1,173.5,100.4z"/>
	<path class="st1" d="M176.8,119.8v-19.1c0-1.4,1-2.5,2.5-2.5h6.4c5,0,8.5,3.1,8.5,7.6c0,4.5-3.5,7.6-8.5,7.6h-4.1v6.3
		c0,1.4-1,2.5-2.4,2.5C177.8,122.2,176.8,121.1,176.8,119.8z M185.7,109.3c2.2,0,3.6-1.3,3.6-3.4c0-2-1.4-3.4-3.6-3.4h-4v6.8H185.7z
		"/>
	<path class="st1" d="M216,100.5c0,0.4-0.1,0.8-0.4,1.3l-7.1,15.2c-1.6,3.5-4.2,5.2-8,5.2c-1,0-1.8-0.1-2.5-0.4
		c-0.8-0.4-1.3-1.1-1.3-1.9c0-1.3,0.9-2.1,2.3-2.1c0.1,0,0.4,0,0.6,0c2.1,0,3.3-0.7,4.1-2.2l-7.3-13.8c-0.2-0.4-0.4-0.9-0.4-1.4
		c0-1.4,1.1-2.5,2.5-2.5c1,0,1.8,0.5,2.3,1.5l5.4,10.9l4.8-10.9c0.4-0.9,1.3-1.5,2.3-1.5C214.9,98,216,99.1,216,100.5z"/>
	<path class="st1" d="M236.4,114.8c0,4.3-3.8,7.4-9,7.4c-3.4,0-6.3-1.4-8.2-3.8c-0.4-0.5-0.5-1-0.5-1.4c0-1.3,1-2.2,2.2-2.2
		c0.6,0,1.1,0.2,1.6,0.8c1.4,1.5,3,2.2,4.9,2.2c2.5,0,4.2-1.3,4.2-3.2c0-1.7-1.4-2.9-3.3-2.9h-2.9c-1.1,0-2-0.9-2-2s0.9-2,2-2h1.9
		c1.8,0,3-1.1,3-2.7c0-1.7-1.4-2.8-3.3-2.8c-1.5,0-3,0.6-4.1,1.9c-0.5,0.5-1,0.7-1.6,0.7c-1.2,0-2.2-1-2.2-2.1c0-0.5,0.1-1,0.5-1.5
		c1.7-2.1,4.5-3.4,7.4-3.4c4.6,0,8.1,3,8.1,7c0,1.9-0.8,3.5-2.2,4.6C235.1,110.4,236.4,112.3,236.4,114.8z"/>
	<path class="st1" d="M245.3,100.3v19.5c0,1.4-1,2.5-2.4,2.5c-1.4,0-2.4-1.1-2.4-2.5v-19.5c0-1.4,1-2.5,2.4-2.5
		C244.3,97.8,245.3,98.9,245.3,100.3z M260.1,119.9c0,1.2-1,2.3-2.3,2.3c-0.7,0-1.4-0.4-1.9-1l-9-10.3c-0.4-0.5-0.6-1-0.6-1.6
		c0-0.5,0.3-1.1,0.7-1.5l8.5-9.2c0.5-0.5,1-0.8,1.8-0.8c1.2,0,2.2,1,2.2,2.3c0,0.6-0.2,1.1-0.7,1.6l-7.1,7.7l7.9,9.1
		C259.9,119,260.1,119.4,260.1,119.9z"/>
	<path class="st1" d="M283.8,119.9c0,1.3-1,2.3-2.4,2.3c-1,0-1.8-0.6-2.3-1.7l-1-2.4h-10l-1,2.4c-0.4,1.1-1.2,1.7-2.3,1.7
		c-1.4,0-2.4-1-2.4-2.3c0-0.4,0.1-0.8,0.3-1.3l8.1-19.2c0.4-1.1,1.2-1.6,2.3-1.6c1.1,0,1.9,0.6,2.3,1.6l8,19.2
		C283.8,119.1,283.8,119.5,283.8,119.9z M269.8,114.1h6.8l-3.4-9.2L269.8,114.1z"/>
</g>
</svg>
