<svg width="20" height="20" xmlns="http://www.w3.org/2000/svg">

 <g>
  <title>background</title>
  <rect fill="none" id="canvas_background" height="22" width="22" y="-1" x="-1"/>
 </g>
 <g>
  <title>Layer 1</title>
  <path stroke="null" id="svg_1" d="m18.998716,8.140788l0,-1l-18.031571,0l0,1l18.031571,0zm0,1l-18.031571,0l0,5.5c0,0.82843 0.672748,1.5 1.502631,1.5l15.026309,0c0.829883,0 1.502631,-0.67157 1.502631,-1.5l0,-5.5zm0,-3l0,-0.5c0,-0.82843 -0.672748,-1.5 -1.502631,-1.5l-15.026309,0c-0.829883,0 -1.502631,0.67157 -1.502631,1.5l0,0.5l18.031571,0zm-4.006885,8.73251c-0.771861,0.4458 -1.768126,0.33102 -2.418575,-0.3183c-0.78242,-0.78105 -0.78242,-2.04737 0,-2.82842c0.649377,-0.64825 1.645291,-0.76488 2.418545,-0.31829c0.294666,-0.17013 0.636775,-0.2675 1.001654,-0.2675c1.106507,0 2.003508,0.89543 2.003508,2c0,1.10457 -0.897001,2 -2.003508,2c-0.364869,0 -0.706968,-0.09737 -1.001624,-0.26749l0,0zm-0.751626,-0.76383c-0.159459,-0.28699 -0.250258,-0.61725 -0.250258,-0.96868c0,-0.35144 0.090809,-0.68171 0.250268,-0.9687c-0.333564,-0.08548 -0.700857,0.00428 -0.958618,0.26159c-0.391205,0.39053 -0.391205,1.02369 0,1.41422c0.258102,0.25764 0.625395,0.34693 0.958608,0.26157l0,0zm-14.274813,-8.46868c0,-1.38071 1.121253,-2.5 2.504385,-2.5l15.026309,0c1.383132,0 2.504385,1.11929 2.504385,2.5l0,9c0,1.38071 -1.121253,2.5 -2.504385,2.5l-15.026309,0c-1.383132,0 -2.504385,-1.11929 -2.504385,-2.5l0,-9zm16.028063,8.5c0.553249,0 1.001754,-0.44772 1.001754,-1c0,-0.55228 -0.448505,-1 -1.001754,-1c-0.553249,0 -1.001754,0.44772 -1.001754,1c0,0.55228 0.448505,1 1.001754,1z"/>
 </g>
</svg>