<?xml version="1.0" encoding="utf-8"?>
<!-- Generator: Adobe Illustrator 23.1.0, SVG Export Plug-In . SVG Version: 6.00 Build 0)  -->
<svg version="1.1" id="Layer_1" xmlns="http://www.w3.org/2000/svg" xmlns:xlink="http://www.w3.org/1999/xlink" x="0px" y="0px"
	 viewBox="0 0 283.5 283.5" style="enable-background:new 0 0 283.5 283.5;" xml:space="preserve">
<style type="text/css">
	.st0{fill:#B0B0B0;}
	.st1{fill-rule:evenodd;clip-rule:evenodd;fill:#B0B0B0;}
</style>
<g>
	<path class="st0" d="M119,202.6v1.2c0,1.2-0.9,2.1-2,2.1c-1.2,0-2-0.9-2-2.1v-1.2c-5.7-0.1-9.4-3.4-9.4-8.5c0-5,3.7-8.2,9.4-8.3v-1
		c0-1.2,0.9-2.1,2-2.1c1.1,0,2,0.9,2,2.1v1c5.8,0,9.4,3.3,9.4,8.3C128.4,199.2,124.7,202.5,119,202.6z M114.9,199.1v-9.8
		c-3.4,0-5.4,1.9-5.4,5C109.5,197.3,111.5,199.1,114.9,199.1z M124.4,194.2c0-3.1-2.1-5-5.4-5v9.8
		C122.4,199.1,124.4,197.3,124.4,194.2z"/>
	<path class="st0" d="M146.7,196.8c0,4.3-3.5,7.8-8,7.8c-4.4,0-7.9-3.4-7.9-7.8s3.5-7.7,7.9-7.7C143.1,189,146.7,192.4,146.7,196.8z
		 M134.8,196.8c0,2.3,1.6,4,3.8,4c2.2,0,3.8-1.7,3.8-4c0-2.3-1.6-4.1-3.8-4.1C136.5,192.7,134.8,194.4,134.8,196.8z"/>
	<path class="st0" d="M152.8,202.5v-9.8h-3.2c-1,0-1.7-0.7-1.7-1.7c0-1,0.8-1.7,1.7-1.7H160c1,0,1.7,0.7,1.7,1.7
		c0,1-0.7,1.7-1.7,1.7h-3.2v9.8c0,1.2-0.8,2.1-2,2.1C153.6,204.6,152.8,203.7,152.8,202.5z"/>
	<path class="st0" d="M178.9,196.8c0,4.3-3.5,7.8-8,7.8c-4.4,0-7.9-3.4-7.9-7.8s3.5-7.7,8-7.7C175.4,189,178.9,192.4,178.9,196.8z
		 M167.1,196.8c0,2.3,1.6,4,3.8,4c2.2,0,3.8-1.7,3.8-4c0-2.3-1.7-4.1-3.8-4.1C168.7,192.7,167.1,194.4,167.1,196.8z"/>
	<path class="st0" d="M27.1,229.8c0-4.3,3.5-7.7,7.9-7.7c2.5,0,4.9,1.2,6,2.9c0.3,0.4,0.4,0.8,0.4,1.1c0,1-0.8,1.8-1.8,1.8
		c-0.6,0-1-0.2-1.4-0.6c-0.8-0.9-1.8-1.5-3.1-1.5c-2.3,0-3.9,1.7-3.9,4c0,2.4,1.6,4.1,3.9,4.1c1.3,0,2.3-0.6,3.1-1.5
		c0.4-0.5,0.8-0.6,1.4-0.6c1,0,1.8,0.8,1.8,1.8c0,0.4-0.1,0.7-0.3,1c-1.2,1.9-3.4,3-6,3C30.6,237.6,27.1,234.1,27.1,229.8z"/>
	<path class="st0" d="M48.7,224.1v11.4c0,1.2-0.9,2.1-2,2.1c-1.2,0-2-0.9-2-2.1v-11.4c0-1.2,0.9-2,2-2S48.7,222.9,48.7,224.1z
		 M58.3,235.7c0,1-0.8,1.9-1.9,1.9c-0.6,0-1.1-0.2-1.4-0.7l-5.1-6.3c-0.4-0.5-0.6-1-0.6-1.4c0-0.5,0.2-0.9,0.7-1.5l4.7-5.1
		c0.4-0.4,0.8-0.6,1.4-0.6c1,0,1.9,0.8,1.9,1.8c0,0.5-0.2,1-0.6,1.4l-3.8,4l4.2,5.2C58.1,234.9,58.3,235.2,58.3,235.7z"/>
	<path class="st0" d="M76,229.8c0,4.3-3.5,7.8-8,7.8c-4.4,0-7.9-3.4-7.9-7.8s3.5-7.7,7.9-7.7C72.5,222,76,225.4,76,229.8z
		 M64.2,229.8c0,2.3,1.6,4,3.8,4c2.2,0,3.8-1.7,3.8-4c0-2.3-1.6-4.1-3.8-4.1C65.8,225.7,64.2,227.4,64.2,229.8z"/>
	<path class="st0" d="M95,229.8c0,4.5-3,7.8-7.2,7.8c-1.9,0-3.4-0.7-4.4-1.8v5.2c0,1.2-0.9,2-2,2c-1.2,0-2-0.9-2-2V224
		c0-1.1,0.9-2,2-2c1.1,0,1.9,0.8,2,1.9c1-1.2,2.6-1.9,4.5-1.9C92,222,95,225.3,95,229.8z M90.9,229.8c0-2.4-1.6-4.1-3.8-4.1
		c-2.2,0-3.7,1.7-3.7,4.1s1.5,4.1,3.7,4.1C89.3,233.9,90.9,232.2,90.9,229.8z"/>
	<path class="st0" d="M113.3,229.8c0,4.3-3.5,7.8-8,7.8c-4.4,0-7.9-3.4-7.9-7.8s3.5-7.7,8-7.7C109.8,222,113.3,225.4,113.3,229.8z
		 M101.5,229.8c0,2.3,1.6,4,3.8,4c2.2,0,3.8-1.7,3.8-4c0-2.3-1.7-4.1-3.8-4.1C103.1,225.7,101.5,227.4,101.5,229.8z"/>
	<path class="st0" d="M125,235.5v-11.1c0-1.2,0.9-2,2-2h9.4c1.2,0,2,0.9,2,2v11.1c0,1.2-0.9,2-2,2c-1.1,0-2-0.9-2-2v-9.8H129v9.8
		c0,1.2-0.9,2-2,2C125.9,237.6,125,236.7,125,235.5z"/>
	<path class="st0" d="M157.7,229.8c0,4.3-3.5,7.8-8,7.8c-4.4,0-7.9-3.4-7.9-7.8s3.5-7.7,7.9-7.7C154.2,222,157.7,225.4,157.7,229.8z
		 M145.9,229.8c0,2.3,1.6,4,3.8,4c2.2,0,3.8-1.7,3.8-4c0-2.3-1.6-4.1-3.8-4.1C147.5,225.7,145.9,227.4,145.9,229.8z"/>
	<path class="st0" d="M173.9,224.4v11.1c0,1.2-0.9,2.1-2,2.1c-1.2,0-2-0.9-2-2.1v-2.1h-2.9h-0.5l-2.8,3.4c-0.5,0.5-1,0.8-1.6,0.8
		c-1.1,0-2-0.9-2-2c0-0.6,0.3-1,0.7-1.5l1.8-2c-1.2-1-1.9-2.4-1.9-4.1c0-3.3,2.5-5.5,6.2-5.5h4.9C173,222.3,173.9,223.2,173.9,224.4
		z M169.8,225.8h-2.6c-1.5,0-2.4,0.8-2.4,2.1c0,1.3,1,2.2,2.4,2.2h2.6V225.8z"/>
	<path class="st0" d="M191.5,232.7c0,2.6-2.2,4.5-5.3,4.5h-6c-1.2,0-2.1-0.9-2.1-2.1v-10.7c0-1.2,0.9-2.1,2.1-2.1h4.9
		c3.2,0,5.3,1.7,5.3,4.1c0,1.1-0.4,2.1-1.2,2.8C190.7,230,191.5,231.2,191.5,232.7z M182.1,228.1h3.1c1,0,1.6-0.5,1.6-1.3
		c0-0.8-0.5-1.2-1.6-1.2h-3.1V228.1z M187.8,232.4c0-0.9-0.7-1.4-1.9-1.4h-3.8v3h3.8C187.1,233.9,187.8,233.3,187.8,232.4z"/>
	<path class="st0" d="M208.8,224.1v11.4c0,1.2-0.9,2.1-2,2.1c-1.1,0-2-0.9-2-2.1V229l-6.1,7.6c-0.6,0.7-1.1,1-1.8,1
		c-1.1,0-2-0.9-2-2.1v-11.4c0-1.2,0.9-2,2-2c1.1,0,2,0.9,2,2v6.6l6.1-7.6c0.6-0.7,1.1-1,1.8-1C207.9,222,208.8,222.9,208.8,224.1z"
		/>
	<path class="st0" d="M216,235.5v-9.8h-3.2c-1,0-1.7-0.7-1.7-1.7c0-1,0.8-1.7,1.7-1.7h10.4c1,0,1.7,0.7,1.7,1.7c0,1-0.7,1.7-1.7,1.7
		H220v9.8c0,1.2-0.8,2.1-2,2.1C216.8,237.6,216,236.7,216,235.5z"/>
	<path class="st0" d="M226.2,229.8c0-4.3,3.5-7.7,7.9-7.7c2.5,0,4.9,1.2,6,2.9c0.3,0.4,0.4,0.8,0.4,1.1c0,1-0.8,1.8-1.8,1.8
		c-0.6,0-1-0.2-1.4-0.6c-0.8-0.9-1.8-1.5-3.1-1.5c-2.3,0-3.9,1.7-3.9,4c0,2.4,1.6,4.1,3.9,4.1c1.3,0,2.3-0.6,3.1-1.5
		c0.4-0.5,0.8-0.6,1.4-0.6c1,0,1.8,0.8,1.8,1.8c0,0.4-0.1,0.7-0.3,1c-1.2,1.9-3.4,3-6,3C229.6,237.6,226.2,234.1,226.2,229.8z"/>
	<path class="st0" d="M256.4,224.4v11.1c0,1.2-0.9,2.1-2,2.1c-1.2,0-2-0.9-2-2.1v-2.1h-2.9h-0.5l-2.8,3.4c-0.5,0.5-1,0.8-1.6,0.8
		c-1.1,0-2-0.9-2-2c0-0.6,0.3-1,0.7-1.5l1.8-2c-1.2-1-1.9-2.4-1.9-4.1c0-3.3,2.5-5.5,6.2-5.5h4.9
		C255.5,222.3,256.4,223.2,256.4,224.4z M252.3,225.8h-2.6c-1.5,0-2.4,0.8-2.4,2.1c0,1.3,1,2.2,2.4,2.2h2.6V225.8z"/>
</g>
<g>
	<path class="st1" d="M81.4,141.9V74.6c0-6.2,4.5-8.1,10.2-8.1c6.1,0,12.2,0,18.3,0c6.9,0,6.2-0.7,9-9.2c0.6-1.9,1.3-5,2.6-6.4
		c1.6-1.7,3.2-3,6.3-3h27.8c1.3,0,2.6,0.4,3.6,0.8c3.6,1.5,4.4,5.7,5.4,8.5c0.6,1.8,1.5,5.2,2.3,6.7c1.5,2.7,2.9,2.6,6.7,2.6
		c6.1,0,12.2,0,18.3,0c3.5,0,5.2,0.2,7.2,1.8c1.6,1.3,2.9,3.5,2.9,6.4v67.3c0,4.7-3.5,8.1-8.1,8.1H89.5
		C84.9,150,81.4,146.6,81.4,141.9L81.4,141.9z M109,57.2l-19.7,0c-4,0-6.9,0.9-10,3.1c-0.8,0.6-1,0.8-1.7,1.4
		c-2.7,2.3-5.4,7.1-5.4,11.4v70.2c0,8.1,7.9,16,16,16h107.3c8.1,0,16-7.9,16-16V73.2c0-5-3.2-10-7-12.8c-5.3-3.8-9.7-3.2-16.5-3.2
		c-4.4,0-8.9,0-13.3,0c-0.5-2.1-1.5-4.7-2.2-6.8c-1.1-3.2-2.5-5.3-4.8-7.4l-3.3-2.5c-1.6-0.9-4.6-1.9-7.1-1.9h-30.7
		c-2.4,0-5.4,1-7.1,1.9c-0.9,0.5-1.9,1.2-2.6,1.8C112.3,46.2,110.3,51.5,109,57.2z"/>
	<path class="st1" d="M116.2,105.9c0-20,23.8-34.5,42.4-18.9c1.4,1.2,2.8,2.6,3.9,4.3c2,3.1,3.1,5.1,3.9,8.8
		c1.3,5.6,0.8,11.1-1.5,16.3c-1.2,2.7-2.5,4.5-4.4,6.6l-0.5,0.6c-7.4,7.7-18.8,10-28.7,5.5c-7.3-3.3-12.5-9.7-14.3-17.6
		C116.6,110.2,116.2,107.4,116.2,105.9L116.2,105.9z M106.9,104.2c0,7.1,1,13.7,4.7,19.4c3.2,4.9,3.7,5.3,7.6,9
		c1.7,1.6,5.4,3.9,7.6,4.9c12.3,5.7,27.7,3.9,37.4-4.8l3.2-3.2c2.8-3.3,1.6-1.6,4.4-5.8c6.1-9.2,6.2-22.6,1.5-32.8
		c-5-10.9-17.6-19.8-29.8-19.8c-6.5,0-11,0.4-16.7,3.3c-1,0.5-1.8,0.8-2.6,1.4l-4.8,3.4c-1.2,1.1-2.2,1.8-3.2,3.1
		c-2.4,3.1-3.6,3.8-5.9,8.6C108.6,94.4,106.9,99.3,106.9,104.2z"/>
	<path class="st1" d="M183.5,79.8c0,7,9.3,7,9.3,0c0-2.1-2-4.1-5.2-4.1C185.8,75.8,183.5,78,183.5,79.8z"/>
</g>
</svg>
