<?xml version="1.0" encoding="utf-8"?>
<!-- Generator: Adobe Illustrator 15.0.0, SVG Export Plug-In . SVG Version: 6.00 Build 0)  -->
<!DOCTYPE svg PUBLIC "-//W3C//DTD SVG 1.1//EN" "http://www.w3.org/Graphics/SVG/1.1/DTD/svg11.dtd">
<svg version="1.1" id="Layer_1" xmlns="http://www.w3.org/2000/svg" xmlns:xlink="http://www.w3.org/1999/xlink" x="0px" y="0px"
	 width="5669.292px" height="1410.831px" viewBox="0 0 5669.292 1410.831" enable-background="new 0 0 5669.292 1410.831"
	 xml:space="preserve">
<g>
	<path fill="#FF5722" d="M640.296,53.54c0.234,0,0.423,0.189,0.423,0.422c0,0.114-0.045,0.217-0.118,0.292h0.009
		c-23.874,36.263-47.474,72.659-58.917,109.098c-11.592,36.912-10.698,73.822-9.588,110.563c0.003,0.114-0.039,0.226-0.119,0.307
		c-0.079,0.082-0.188,0.128-0.303,0.128c-0.053,0-0.105-0.01-0.154-0.029c-20.499-8.014-40.794-16.215-59.275-32.275
		c-4.464-3.879-8.82-8.215-12.872-12.891c-13.267-15.315-23.131-34.125-22.76-52.188c0.483-23.59,18.434-46.295,39.734-63.703
		c21.245-17.361,45.605-29.271,67.407-38.538c20.364-8.656,38.44-14.983,56.388-21.164c0.023-0.008,0.047-0.014,0.072-0.018h0.009
		C640.253,53.542,640.275,53.54,640.296,53.54z"/>
	<path fill="#FF5722" d="M1015.547,1c62.505,0,129.166,3.527,195.953,7.135h0.003c0.03,0,0.063,0.003,0.094,0.012h-0.003
		c0.018,0.004,0.035,0.009,0.052,0.016h0.003c0.18,0.068,0.292,0.25,0.269,0.445c-0.018,0.154-0.118,0.28-0.252,0.338h0.003
		c-72.321,42.682-144.481,85.67-200.333,142.063c-56.656,57.205-96.499,128.172-136.212,199.052
		c-0.076,0.136-0.218,0.216-0.369,0.216c-0.016,0-0.033-0.001-0.048-0.003h0.005c-40.879-3.708-81.706-7.443-122.759-15.913
		c-41.057-8.47-82.354-21.673-123.716-34.931h0.009c-0.187-0.031-0.332-0.184-0.352-0.374c-2.787-27.209-5.451-54.411,2.167-91.199
		c7.71-37.236,25.95-84.276,47.384-116.229c21.305-31.76,45.784-48.645,70.413-65.546h0.007c0.063-0.064,0.146-0.11,0.242-0.125
		C817.1,15.389,886.054,4.844,963.945,1.911C980.755,1.278,997.992,1,1015.547,1z"/>
	<path fill="#FF5722" d="M1486.4,57.619L1486.4,57.619L1486.4,57.619L1486.4,57.619z M1335.295,21.168
		c-0.049,0-0.1,0.009-0.147,0.026c-63.053,23.569-125.978,47.126-183.857,86.369c-57.991,39.318-110.956,94.413-146.949,139.191
		c-35.32,43.942-54.272,77.917-72.951,111.761c-0.068,0.123-0.07,0.271-0.006,0.396c0.064,0.125,0.187,0.211,0.325,0.227
		l0.005,0.001l0.027,0.002c59.303,3.434,118.562,6.825,177.359,6.825c6.601,0,13.194-0.042,19.782-0.133
		c65.636-0.898,130.64-6.51,195.679-12.149h-0.002c0.066-0.001,0.131-0.018,0.19-0.05c0.111-0.06,0.19-0.164,0.215-0.287
		c11.318-54.901,22.755-109.93,49.884-159.443c26.948-49.181,69.355-92.878,111.84-136.398l0,0c0.09-0.083,0.14-0.204,0.133-0.329
		v-0.001c-0.008-0.167-0.114-0.313-0.271-0.374c-0.019-0.006-0.037-0.013-0.057-0.017l0,0c-25.9-7.404-51.753-14.759-76.651-20.641
		c-25.475-6.017-49.962-10.495-74.47-14.968l-0.074-0.007H1335.295z"/>
	<path fill="#FF5722" d="M1542.581,70.412c0.062,0,0.12,0.014,0.175,0.041c23.936,11.54,47.837,23.115,73.276,39.597
		c25.83,16.735,52.931,38.34,61.032,63.961l0,0c0.076,0.239,0.167,0.534,0.238,0.773l0,0c7.595,25.286-3.192,54.779-38.097,81.529
		c-35.299,27.053-95.086,51.134-144.34,65.593l0,0c-48.259,14.166-86.302,19.064-124.209,23.79c-0.017,0.002-0.033,0.003-0.05,0.003
		c-0.098,0-0.192-0.036-0.267-0.101c-0.087-0.076-0.136-0.187-0.136-0.302v-0.001c0-0.049,0.01-0.098,0.027-0.144
		c19.896-52.133,39.873-104.079,68.389-149.664c28.724-45.921,66.13-85.415,103.671-124.95
		C1542.366,70.458,1542.471,70.412,1542.581,70.412L1542.581,70.412z"/>
	<path fill="#2F3841" d="M489.722,68.871c0.416,0,0.785,0.27,0.91,0.667c0.125,0.398-0.023,0.831-0.366,1.069
		c-9.026,6.286-17.93,12.645-26.362,19.268c-22.66,17.803-41.977,37.579-51.152,63.155c-13.834,38.562-4.562,90.127,66.2,137.343
		c70.72,47.188,202.924,90.089,375.978,108.24c66.776,7.003,139.647,10.324,213.092,10.324c116.883,0,235.194-8.41,332.677-23.75
		c148.453-23.363,248.685-62.814,300.903-103.838c3.61-2.836,6.98-5.672,10.134-8.52h0.002c0.013-0.013,0.024-0.025,0.038-0.037
		c48.801-44.104,42.539-88.868,22.015-122.607c-17.872-29.379-46.568-50.427-76.594-70.364c-0.294-0.196-0.457-0.539-0.422-0.89
		c0.035-0.352,0.262-0.656,0.589-0.79l0.002-0.001c0.116-0.046,0.238-0.07,0.359-0.07c0.132,0,0.263,0.027,0.386,0.082
		c23.891,10.532,47.029,21.633,65.829,36.218c22.47,17.431,38.744,39.837,55.026,62.324c0.135,0.185,0.195,0.408,0.179,0.628h0.003
		l0.003,0.074l0,0c3.403,90.283,6.787,180.462,2.034,242.232c-4.612,59.948-16.878,93.029-53.278,121.625
		c-0.015,0.012-0.028,0.022-0.042,0.033h0.001c-1.149,0.902-2.353,1.824-3.551,2.718l0,0
		c-39.253,29.287-104.898,54.564-193.734,70.458l0,0c-41.752,7.47-88.613,12.866-134.713,18.174h0.001l-0.055,0.006l-0.054,0.006
		h-0.002c-51.941,5.98-102.905,11.851-144.43,20.452l0,0c-55.77,11.551-94.543,28.033-123.69,50.932
		c-11.833,9.296-22.076,19.648-31.224,31.15c-31.679,39.834-50.224,93.473-57.722,160.375c-7.493,66.87-3.95,147.027-0.406,227.146
		l0.004,0.083l0,0c0.008,0.209,0.176,0.376,0.385,0.385h0.002l0.029,0.001l0.029,0.001h0.001
		c52.247,2.153,104.506,4.308,158.386,4.308c35.229,0,71.159-0.922,108.222-3.364c51.691-3.407,105.629-9.777,154.871-18.916l0,0
		c0.038-0.009,0.079-0.016,0.119-0.021c0.017,0,0.036-0.004,0.054-0.008l0,0c0.031-0.009,0.063-0.018,0.094-0.022
		c39.957-7.427,76.789-16.676,106.801-27.636l0,0c33.684-12.302,58.795-26.766,78.421-42.184l0,0l0,0
		c19.472-15.299,33.534-31.529,45.201-47.498l0,0c8.892-12.168,16.387-24.178,22.915-34.636l0.001-0.001l0.012-0.021
		c8.849-14.177,15.862-25.398,22.097-30.317h0.003l0.03-0.027c1.277-1.001,2.506-1.727,3.7-2.161l0,0
		c0.924-0.336,1.854-0.503,2.78-0.503c10.018,0,18.747,19.646,27.87,40.642c0.066,0.155,0.091,0.32,0.073,0.481h0.003l0.228,84.787
		c0.001,0.271-0.114,0.531-0.316,0.713c-0.176,0.158-0.403,0.244-0.637,0.244c-0.035,0-0.071-0.002-0.107-0.007
		c-0.015-0.001-0.03-0.002-0.043-0.002c-0.15,0-0.292,0.083-0.361,0.224l-0.001,0.002l0,0c-0.05,0.101-0.055,0.217-0.015,0.322
		c0.041,0.104,0.124,0.188,0.229,0.229l0.001,0.001l0.552,0.217l0,0h0.002c0.029,0.012,0.082,0.031,0.118,0.047
		c0.394,0.162,0.63,0.564,0.585,0.983h0.002l0.419,156.249c0.002,0.234-0.084,0.459-0.235,0.631h0.002
		c-18.831,26.48-37.703,52.908-69.728,78.07h-0.001c-23.708,18.624-54.63,36.561-98.093,53.295l0,0
		c-102.519,39.471-274.747,72.223-466.856,74.418c-6.953,0.079-13.998,0.119-20.999,0.119c-186.396,0-387.874-27.753-515.186-66.562
		c-131.621-40.12-183.955-92.053-236.057-144.054h0.012c-0.252-0.176-0.415-0.467-0.413-0.794l3.374-447.473
		c0.001-0.16-0.091-0.304-0.236-0.37c-0.054-0.024-0.111-0.035-0.167-0.035c-0.096,0-0.191,0.034-0.267,0.102l-0.234,0.206v0.001
		c-13.899,12.316-27.813,24.637-42.529,36.199c-14.825,11.646-30.477,22.535-47.799,31.923
		c-34.623,18.761-75.935,31.526-116.627,36.327c-15.037,1.771-29.992,2.459-44.889,2.459c-24.778,0-49.433-1.898-74.095-3.844h0.001
		c-0.314-0.014-0.601-0.183-0.767-0.449s-0.19-0.598-0.064-0.887c13-29.807,26.131-59.612,46.819-91.042h0.014
		c0.021-0.047,0.045-0.091,0.074-0.135c17.553-26.645,40.539-54.448,69.299-77.043l0,0c5.877-4.618,12.003-9.022,18.365-13.15l0,0
		c37.506-24.333,83.518-39.239,129.592-54.16h-0.001c0.161-0.052,0.272-0.198,0.279-0.367s-0.092-0.323-0.249-0.388h0
		c-40.875-16.939-81.711-33.862-126.485-68.213c-44.788-34.36-93.513-86.155-123.708-138.997l0,0
		C23.331,358.834,11.583,305.541,0.021,252.174c-0.059-0.275,0.005-0.562,0.177-0.784c0.171-0.223,0.431-0.359,0.712-0.372
		l0.015-0.001c0.015,0,0.029,0,0.043,0c0.025,0,0.051,0,0.075,0.002c70.82,5.558,141.48,11.28,202.747,36.292
		c61.696,25.187,113.888,69.948,166.125,114.795c0.03,0.025,0.058,0.053,0.084,0.082h0.012l0.147,0.127h0.001
		c0.073,0.063,0.166,0.098,0.262,0.098c0.056,0,0.113-0.013,0.166-0.037l0,0c0.143-0.065,0.234-0.207,0.235-0.364l0,0l1.435-224.98
		h-0.011c0-0.14,0.032-0.28,0.094-0.409l0.026-0.054l0,0c12.172-25.316,24.345-50.517,45.525-69.12h0.01
		c0.027-0.03,0.055-0.058,0.086-0.085c1.546-1.355,3.136-2.672,4.776-3.96c18.263-14.348,42.049-24.658,66.592-34.464
		c0.112-0.044,0.233-0.068,0.354-0.068H489.722z"/>
	<path fill="#B9C1C4" d="M1460.132,1104.849l-0.004,0.001l0,0c-0.001,0-0.001,0-0.003,0l0,0
		C1460.127,1104.85,1460.129,1104.85,1460.132,1104.849L1460.132,1104.849L1460.132,1104.849z M1460.209,1105.2L1460.209,1105.2
		L1460.209,1105.2L1460.209,1105.2z M1305.816,643.451c-0.021,0-0.042,0.002-0.062,0.005l0,0c-0.005,0-0.011,0.001-0.016,0.002
		h-0.001c-19.329,2.774-37.679,5.808-54.484,9.288l0,0c-0.006,0.001-0.014,0.003-0.019,0.005l0,0
		c-0.003,0.001-0.005,0.002-0.008,0.002h-0.002c-55.786,11.557-94.609,28.052-123.81,50.994l0,0
		c-11.856,9.314-22.118,19.688-31.283,31.209c-31.735,39.904-50.296,93.616-57.797,160.559
		c-7.497,66.904-3.953,147.086-0.409,227.195h0.001l0,0v0.008l0.004,0.084l0,0c0,0.002,0,0.004,0,0.006
		c0.02,0.387,0.328,0.697,0.714,0.721h0.003l0.001,0.001h0.002h-0.002h0.004h0.005l0.002,0.001h0.03l0,0l0.016,0.001h-0.005
		c0.003,0.001,0.007,0.001,0.009,0.001h0.005c0.003,0,0.007,0,0.007,0h-0.002c52.249,2.152,104.51,4.307,158.4,4.307
		c35.243,0,71.167-0.92,108.245-3.365c49.911-3.289,101.92-9.342,149.776-17.98l0,0l5.149,0.002h0.001
		c0.882,0,1.609-0.664,1.706-1.521c0-0.006,0-0.011,0.002-0.016l0,0c0.007-0.097-0.027-0.191-0.091-0.264l-0.118-0.053l0.118,0.053
		c-0.069-0.078-0.167-0.121-0.269-0.121l0,0l-0.016,0.001l-0.033,0.003l-0.016,0.002c-0.149,0.027-0.084,0.016-0.142,0.025h-0.001
		c-0.032,0.007-0.012,0.002-0.148,0.027c-0.001,0.002-0.002,0.002-0.005,0.003l0,0l-0.428,0.079l0,0l-0.435,0.08
		c-0.003,0-0.004,0.002-0.007,0.002l0,0c-0.035,0.008-0.071,0.015-0.106,0.025l0,0c-0.003,0-0.005,0-0.004,0h-0.001l-0.001,0.001
		h-0.003l0,0c-0.053,0.005-0.103,0.014-0.153,0.024l0,0c-0.007,0.002-0.014,0.003-0.02,0.004l0,0
		c-1.631,0.303-3.4,0.627-5.043,0.922l0,0c-91.218-0.063-182.186-0.645-239.663-30.095c-58.738-30.093-82.4-90.191-85.588-147.606
		l0,0v-0.01c-0.511-9.199-0.497-18.324,0.023-27.373c2.724-47.479,19.353-92.576,47.035-132.099h0.001
		c32.753-46.759,80.983-85.704,129.154-124.497l0,0c0.122-0.094,0.168-0.255,0.119-0.4
		C1306.107,643.548,1305.972,643.451,1305.816,643.451L1305.816,643.451z"/>
	<path fill="#2F3841" d="M1599.642,797.479L1599.642,797.479l-2.164-6.44c-0.138-0.407-0.29-0.811-0.458-1.206l0,0l-2.644-6.259
		c-0.169-0.396-0.35-0.785-0.547-1.168l0,0l-3.109-6.041c-0.197-0.383-0.409-0.758-0.633-1.123l0,0l-3.557-5.79
		c-0.226-0.366-0.464-0.724-0.715-1.072l0,0l-3.985-5.503c-0.251-0.35-0.518-0.688-0.795-1.016l0,0l-4.387-5.188
		c-0.279-0.328-0.568-0.646-0.87-0.953l0,0l-4.768-4.841c-0.301-0.306-0.615-0.601-0.939-0.884l0,0l-5.12-4.469
		c-0.323-0.281-0.658-0.553-1.002-0.809l0,0l-5.441-4.068c-0.346-0.258-0.699-0.502-1.062-0.732l0,0l-5.734-3.646
		c-0.362-0.23-0.734-0.446-1.112-0.65l0,0l-5.995-3.201c-0.378-0.203-0.766-0.391-1.158-0.564l0,0l-6.218-2.739
		c-0.393-0.174-0.793-0.333-1.197-0.476l0,0l-6.408-2.264c-0.405-0.143-0.816-0.27-1.23-0.383l0,0l-6.561-1.773
		c-0.415-0.111-0.834-0.209-1.256-0.287l0,0l-6.674-1.274c-0.421-0.081-0.848-0.144-1.273-0.192l0,0l-6.752-0.766
		c-0.428-0.047-0.856-0.08-1.285-0.095l0,0l-6.792-0.253c-0.431-0.017-0.862-0.017-1.294,0l0,0l-6.85,0.266
		c-0.433,0.017-0.867,0.051-1.297,0.101l0,0l-6.811,0.786c-0.431,0.05-0.86,0.116-1.285,0.198l0,0l-6.731,1.304
		c-0.426,0.083-0.849,0.182-1.267,0.296l0,0l-6.612,1.813c-0.418,0.113-0.833,0.244-1.241,0.391l0,0l-6.455,2.312
		c-0.408,0.146-0.81,0.308-1.207,0.485l0,0l-6.26,2.795c-0.395,0.178-0.784,0.369-1.167,0.576l0,0l-6.028,3.265
		c-0.382,0.206-0.755,0.427-1.12,0.662l0,0l-5.763,3.716c-0.363,0.234-0.72,0.483-1.064,0.746l0,0l-5.463,4.143
		c-0.346,0.262-0.681,0.537-1.005,0.825l0,0l-5.131,4.548c-0.325,0.285-0.638,0.587-0.94,0.898l0,0l-4.77,4.924
		c-0.302,0.313-0.591,0.635-0.868,0.969l0,0l-4.38,5.274c-0.277,0.334-0.542,0.677-0.792,1.032l0,0l-3.966,5.592
		c-0.251,0.354-0.488,0.717-0.711,1.09l0,0l-3.528,5.878c-0.225,0.372-0.432,0.752-0.626,1.14l0,0l-3.071,6.129
		c-0.195,0.39-0.373,0.783-0.537,1.187l0,0l-2.595,6.345c-0.164,0.402-0.312,0.811-0.445,1.223l0,0l-2.103,6.525
		c-2.89,8.967,2.038,18.578,11.004,21.468c8.967,2.89,18.578-2.038,21.468-11.005l0,0l2.102-6.525l-0.446,1.223l2.595-6.348
		l-0.538,1.186l3.07-6.131l-0.627,1.141l3.528-5.879l-0.711,1.09l3.966-5.593l-0.793,1.03l4.38-5.273l-0.868,0.969l4.769-4.926
		l-0.939,0.898l5.13-4.546l-1.005,0.825l5.462-4.144l-1.065,0.747l5.762-3.716l-1.119,0.662l6.028-3.265l-1.166,0.576l6.26-2.797
		l-1.207,0.484l6.455-2.311l-1.242,0.393l6.613-1.813l-1.266,0.296l6.73-1.305l-1.285,0.199l6.811-0.786l-1.297,0.1l6.851-0.266
		l-1.295,0.001l6.791,0.252l-1.285-0.096l6.751,0.764l-1.274-0.192l6.675,1.271l-1.257-0.289l6.561,1.773l-1.231-0.384l6.408,2.264
		l-1.199-0.475l6.218,2.74l-1.159-0.564l5.993,3.202l-1.114-0.649l5.734,3.645l-1.062-0.732l5.443,4.068l-1.002-0.811l5.12,4.469
		l-0.938-0.884l4.768,4.841l-0.869-0.951l4.388,5.188l-0.795-1.016l3.984,5.505l-0.715-1.072l3.557,5.789l-0.633-1.123l3.111,6.042
		l-0.546-1.168l2.644,6.26l-0.457-1.206l2.165,6.44c3,8.932,12.673,13.738,21.603,10.736
		C1597.836,816.081,1602.643,806.409,1599.642,797.479z"/>
</g>
<g>
	<path fill="#FF5722" d="M2187.239,536.413v57.84h51.973c27.662,0,47.78,20.118,47.78,47.781c0,27.662-20.118,47.781-47.78,47.781
		h-51.973v271.596c0,33.531-24.31,57.841-56.164,57.841c-32.691,0-57.001-25.147-57.001-57.841V689.815h-18.442
		c-27.663,0-48.62-20.119-48.62-47.781c0-27.663,20.957-47.781,48.62-47.781h18.442v-67.899c0-98.077,57.84-155.917,154.24-155.917
		c21.795,0,38.56,3.354,53.648,10.897c17.604,7.545,28.501,24.31,28.501,45.267c0,27.662-19.28,46.104-49.458,46.104
		c-3.354,0-7.545-0.838-13.413-0.838C2209.033,471.867,2187.239,495.338,2187.239,536.413z"/>
	<path fill="#FF5722" d="M2763.119,801.304c0,120.71-98.916,217.11-223.816,217.11c-124.063,0-221.302-95.563-221.302-217.11
		c0-121.549,97.238-216.272,222.14-216.272C2664.203,585.032,2763.119,680.595,2763.119,801.304z M2432.843,802.143
		c0,65.384,45.266,112.327,107.297,112.327c61.194,0,107.298-47.781,107.298-112.327c0-65.386-46.104-114.005-107.298-114.005
		C2478.109,688.138,2432.843,735.919,2432.843,802.143z"/>
	<path fill="#FF5722" d="M3272.767,801.304c0,120.71-98.915,217.11-223.816,217.11c-124.063,0-221.302-95.563-221.302-217.11
		c0-121.549,97.238-216.272,222.14-216.272C3173.852,585.032,3272.767,680.595,3272.767,801.304z M2942.49,802.143
		c0,65.384,45.267,112.327,107.298,112.327c61.193,0,107.297-47.781,107.297-112.327c0-65.386-46.104-114.005-107.297-114.005
		C2987.757,688.138,2942.49,735.919,2942.49,802.143z"/>
	<path fill="#FF5722" d="M3775.708,428.277V962.25c0,32.692-23.471,57.002-55.326,57.002c-29.338,0-53.648-23.472-55.324-52.811
		c-28.501,33.53-72.929,52.811-126.578,52.811c-116.518,0-201.185-91.37-201.185-217.109s84.667-217.111,201.185-217.111
		c51.971,0,95.562,18.442,124.063,49.458V428.277c0-32.692,24.311-57.84,57.003-57.84
		C3751.398,370.437,3775.708,394.746,3775.708,428.277z M3664.219,802.143c0-67.899-42.752-114.843-104.782-114.843
		c-62.033,0-107.298,48.619-107.298,114.004c0,67.061,44.428,114.842,107.298,114.842
		C3622.306,916.146,3664.219,870.041,3664.219,802.143z"/>
	<path fill="#2F3841" d="M4269.438,751.847v209.564c0,33.531-23.473,57.841-56.166,57.841c-31.854,0-56.163-25.147-56.163-57.841
		V766.935c0-47.779-31.014-80.473-77.12-80.473c-46.104,0-78.797,33.531-78.797,80.473v194.477c0,33.531-24.31,57.841-56.162,57.841
		c-32.693,0-57.003-25.147-57.003-57.841V642.034c0-32.692,24.31-57.002,56.163-57.002c25.988,0,46.943,17.604,52.811,42.752
		c29.341-26.825,70.416-42.752,116.52-42.752C4208.244,585.032,4269.438,650.416,4269.438,751.847z"/>
	<path fill="#2F3841" d="M4505.815,443.366c0,37.722-32.691,67.899-70.414,67.899c-39.397,0-71.253-30.177-71.253-67.899
		c0-38.561,31.855-68.738,71.253-68.738C4473.124,374.628,4505.815,404.805,4505.815,443.366z M4378.399,961.411V642.034
		c0-32.692,24.31-57.002,57.002-57.002c31.854,0,56.163,24.31,56.163,57.002v319.377c0,32.693-24.31,57.841-57,57.841
		C4402.709,1019.252,4378.399,994.104,4378.399,961.411z"/>
	<path fill="#2F3841" d="M4985.297,751.847v209.564c0,33.531-23.471,57.841-56.163,57.841c-31.854,0-56.163-25.147-56.163-57.841
		V766.935c0-47.779-31.017-80.473-77.12-80.473c-46.104,0-78.797,33.531-78.797,80.473v194.477c0,33.531-24.31,57.841-56.163,57.841
		c-32.692,0-57.003-25.147-57.003-57.841V642.034c0-32.692,24.311-57.002,56.164-57.002c25.985,0,46.943,17.604,52.811,42.752
		c29.34-26.825,70.414-42.752,116.518-42.752C4924.104,585.032,4985.297,650.416,4985.297,751.847z"/>
	<path fill="#2F3841" d="M5006.243,1162.595c-20.957-8.382-34.369-24.31-34.369-46.104c0-27.664,20.119-48.619,47.781-48.619
		c4.191,0,6.707,0.838,10.898,0.838c41.912,0,63.706-15.928,63.706-74.605v-352.07c0-32.692,24.31-57.002,57.003-57.002
		c31.854,0,56.162,24.31,56.162,57.002v372.188c0,102.269-60.354,155.917-155.077,155.917
		C5033.066,1170.14,5018.815,1166.786,5006.243,1162.595z M5221.676,443.366c0,37.722-32.692,67.899-70.413,67.899
		c-39.4,0-71.254-30.177-71.254-67.899c0-38.561,31.854-68.738,71.254-68.738C5188.983,374.628,5221.676,404.805,5221.676,443.366z"
		/>
	<path fill="#2F3841" d="M5667.628,762.743V962.25c0,32.692-23.473,56.164-54.486,56.164c-27.664,0-49.459-18.442-54.489-43.59
		c-30.178,28.501-72.09,44.428-121.546,44.428c-85.504,0-143.346-50.296-143.346-124.063c0-74.606,59.518-120.71,156.757-120.71
		h103.945v-18.441c0-46.104-27.664-72.93-77.96-72.93c-29.338,0-55.326,10.059-79.635,31.017
		c-13.412,10.06-22.632,13.411-33.53,13.411c-27.662,0-48.619-20.956-48.619-46.104c0-15.927,8.383-31.017,23.47-45.267
		c35.209-32.691,89.695-51.134,150.05-51.134C5602.243,585.032,5667.628,649.578,5667.628,762.743z M5554.463,854.114v-5.029
		h-88.858c-37.721,0-57.839,14.25-57.839,41.913c0,27.662,22.634,45.267,59.518,45.267
		C5516.739,936.265,5554.463,901.058,5554.463,854.114z"/>
</g>
</svg>
